<?xml version="1.0" standalone="no"?>
<!DOCTYPE svg PUBLIC "-//W3C//DTD SVG 20010904//EN"
 "http://www.w3.org/TR/2001/REC-SVG-20010904/DTD/svg10.dtd">
<svg version="1.0" xmlns="http://www.w3.org/2000/svg"
 width="1080.000000pt" height="1080.000000pt" viewBox="0 0 1080.000000 1080.000000"
 preserveAspectRatio="xMidYMid meet">

<g transform="translate(0.000000,1080.000000) scale(0.100000,-0.100000)"
fill="#000000" stroke="none">
<path d="M4970 10791 c0 -4 -42 -11 -92 -15 -160 -11 -429 -53 -643 -101
-1112 -248 -2095 -826 -2866 -1685 -589 -656 -1023 -1493 -1229 -2371 -50
-212 -101 -522 -115 -701 -4 -49 -11 -88 -16 -88 -5 0 -9 -197 -9 -450 0 -253
4 -450 9 -450 5 0 12 -39 16 -87 22 -281 95 -659 191 -990 146 -503 393 -1034
689 -1481 460 -695 1102 -1295 1820 -1702 72 -41 174 -100 227 -132 54 -32 99
-58 102 -58 3 0 42 -17 88 -39 70 -33 211 -93 283 -121 11 -4 34 -13 50 -20
67 -28 315 -112 381 -129 39 -10 86 -23 105 -29 63 -20 214 -56 279 -67 19 -4
64 -13 100 -20 246 -53 185 -50 1065 -50 741 0 828 2 900 17 108 24 334 70
365 75 33 5 206 53 275 75 17 6 44 14 60 18 66 18 282 98 320 119 22 11 43 21
47 21 19 0 311 131 468 211 511 257 981 601 1391 1016 196 198 322 340 314
352 -3 5 1 12 7 14 8 3 6 6 -4 6 -11 1 -18 -6 -18 -16 0 -13 -3 -14 -8 -6 -5
7 -20 10 -37 8 -20 -4 -25 -2 -17 3 11 7 9 10 -7 15 -12 3 -21 12 -21 21 0 9
-5 16 -11 16 -5 0 -7 5 -4 10 3 6 -5 14 -18 19 -13 5 -27 17 -31 26 -3 9 -10
13 -16 10 -5 -3 -10 -1 -10 5 0 8 -9 10 -25 6 -20 -5 -23 -3 -18 11 4 11 3 14
-5 9 -7 -4 -12 -2 -12 4 0 6 -4 9 -9 5 -5 -3 -26 6 -46 19 -20 14 -45 28 -56
31 -11 4 -16 11 -13 17 5 8 1 9 -10 5 -14 -5 -17 -3 -12 8 3 8 2 14 -2 13 -13
-3 -61 25 -57 33 3 4 -3 5 -13 2 -11 -2 -26 2 -34 10 -8 8 -23 17 -34 19 -10
2 -17 11 -16 19 2 8 0 11 -4 6 -10 -10 -54 32 -54 52 0 14 -1 14 -10 1 -7 -11
-10 -11 -10 -2 0 8 -5 10 -12 6 -10 -6 -10 -4 0 8 10 13 10 18 1 24 -8 5 -10
3 -5 -7 4 -8 0 -5 -8 5 -9 11 -16 26 -16 33 0 7 -4 13 -10 13 -5 0 -10 5 -10
11 0 6 9 8 20 4 16 -5 19 -3 13 11 -5 13 -3 15 7 9 9 -5 11 -4 6 3 -4 7 -13
12 -21 12 -8 0 -23 10 -34 21 -11 12 -26 19 -35 16 -15 -6 -50 25 -41 36 3 4
2 5 -1 2 -4 -2 -13 3 -21 11 -8 8 -18 12 -23 9 -5 -3 -7 6 -5 20 1 14 -2 28
-6 31 -5 3 -9 -1 -9 -8 0 -10 -3 -9 -9 2 -6 8 -8 17 -5 21 2 4 -3 10 -12 13
-8 3 -12 10 -9 16 4 6 11 8 16 5 5 -4 9 -4 9 -2 0 7 -70 47 -82 47 -6 0 -16
-6 -22 -13 -6 -7 -10 -10 -9 -8 2 2 -3 11 -10 19 -9 13 -9 14 0 8 9 -5 11 -2
7 8 -7 19 -20 21 -27 4 -3 -8 -6 -6 -6 5 -1 9 -6 17 -12 17 -5 0 -8 -4 -4 -9
7 -12 -55 5 -68 18 -5 5 -16 7 -24 4 -8 -3 -19 0 -23 8 -5 7 -17 14 -27 14
-10 1 -33 5 -51 10 -28 6 -33 12 -28 29 5 20 5 21 -9 2 -15 -20 -15 -20 -15 0
0 14 -2 16 -9 5 -7 -10 -10 -10 -16 -1 -4 7 -2 16 5 20 8 5 7 9 -5 13 -9 4
-13 3 -10 -3 3 -6 3 -10 0 -10 -10 0 -69 43 -73 52 -2 4 -13 8 -25 8 -12 0
-17 4 -12 8 18 13 15 30 -6 35 -16 4 -18 3 -8 -9 6 -8 9 -14 7 -14 -10 0 -53
42 -53 51 0 5 -4 9 -10 10 -5 0 -13 8 -17 18 -3 10 -22 26 -42 35 -20 9 -36
19 -36 22 0 3 5 2 12 -2 7 -4 8 -3 4 4 -4 7 -12 12 -18 12 -6 0 -17 8 -25 17
-9 11 -11 12 -7 3 5 -10 1 -9 -14 3 -11 11 -26 16 -31 12 -6 -3 -11 -2 -11 3
0 5 -9 12 -20 15 -13 3 -18 1 -13 -6 4 -6 0 -8 -10 -4 -10 4 -16 2 -14 -6 1
-7 -9 -12 -24 -12 -20 0 -25 -4 -22 -16 3 -11 -4 -22 -16 -29 -12 -6 -19 -15
-16 -20 3 -6 -1 -7 -9 -4 -9 3 -16 1 -16 -5 0 -6 6 -11 13 -11 9 0 9 -2 -1 -9
-8 -4 -12 -10 -11 -12 2 -2 -6 -17 -16 -32 -12 -19 -24 -27 -37 -24 -10 3 -16
1 -12 -4 5 -8 -10 -13 -29 -10 -5 1 -6 -3 -3 -8 8 -12 -20 -34 -33 -27 -5 4
-26 -9 -45 -29 -21 -20 -33 -28 -30 -18 4 11 -3 8 -18 -10 -15 -17 -34 -27
-51 -27 -16 0 -26 -4 -22 -10 8 -13 -1 -13 -24 -1 -22 12 -46 -2 -38 -23 4 -9
3 -16 -1 -17 -4 0 -18 -2 -32 -4 -14 -1 -31 2 -37 7 -10 8 -13 5 -13 -8 0 -14
-2 -16 -9 -6 -7 11 -9 10 -15 -3 -3 -9 -10 -14 -15 -10 -6 3 -19 -2 -30 -12
-25 -21 -106 -30 -95 -11 6 9 3 9 -9 -1 -16 -13 -22 -8 -18 13 1 5 -5 3 -14
-4 -18 -15 -68 -24 -60 -10 2 4 -5 10 -17 13 -12 4 -25 1 -29 -5 -4 -6 -12 -7
-18 -4 -6 4 -11 2 -11 -4 0 -7 -6 -8 -19 0 -13 7 -22 7 -26 0 -7 -12 -51 -3
-83 18 -17 11 -29 12 -45 5 -17 -8 -26 -6 -41 8 -11 11 -26 19 -34 19 -8 0
-26 9 -42 20 -15 11 -30 17 -34 13 -3 -3 -6 -1 -6 6 0 7 -4 9 -10 6 -6 -3 -10
-1 -10 4 0 6 -3 10 -7 10 -26 -4 -43 2 -37 14 6 9 5 9 -7 0 -12 -10 -18 -10
-29 0 -10 10 -11 9 -5 -1 6 -11 3 -12 -12 -3 -11 6 -23 7 -27 4 -3 -3 -6 -1
-6 6 0 6 -11 16 -25 21 -14 5 -25 14 -25 19 0 6 -6 8 -14 5 -8 -3 -17 0 -21 5
-3 6 -10 9 -14 7 -4 -3 -28 1 -53 9 -26 7 -48 12 -50 9 -3 -2 -13 5 -23 16
-10 11 -24 20 -32 20 -7 0 -13 4 -13 8 0 5 -18 16 -40 26 -22 10 -40 21 -40
25 0 5 -15 7 -32 5 -18 -1 -27 0 -20 3 17 7 5 23 -13 16 -11 -4 -13 -1 -8 13
6 17 5 17 -10 5 -10 -8 -20 -11 -24 -7 -3 3 -1 6 5 6 7 0 12 5 12 10 0 6 -7
10 -15 10 -8 0 -15 6 -15 13 0 6 -24 26 -53 42 -28 17 -54 39 -56 50 -3 16 -1
17 12 7 12 -10 17 -10 23 -1 4 7 3 9 -3 6 -13 -8 -65 42 -57 55 4 7 2 8 -4 4
-7 -4 -12 -3 -12 2 0 11 -99 52 -127 52 -12 0 -29 7 -37 16 -9 8 -16 12 -16 8
0 -4 -6 0 -13 11 -8 10 -19 15 -26 11 -6 -4 -36 6 -66 22 -43 24 -55 27 -59
15 -3 -8 -2 -12 3 -9 4 3 16 -1 26 -8 16 -12 15 -12 -14 -8 -26 3 -30 8 -26
23 7 21 -10 27 -18 7 -3 -8 -6 -6 -6 5 -1 9 -8 17 -16 17 -8 0 -15 5 -15 10 0
6 -7 10 -15 10 -10 0 -12 6 -8 17 6 16 5 17 -12 3 -11 -9 -16 -10 -11 -2 4 6
3 12 -3 12 -6 0 -8 7 -5 15 6 16 -11 37 -38 47 -22 9 -44 48 -27 48 7 0 -9 20
-35 45 -25 25 -46 51 -46 57 0 7 7 3 15 -8 14 -18 14 -17 4 9 -7 15 -14 25
-17 23 -7 -8 -30 18 -24 28 3 5 0 6 -6 2 -12 -7 -53 28 -71 62 -7 12 -17 20
-23 16 -7 -4 -8 -3 -4 4 4 6 -5 32 -19 57 -14 26 -20 43 -14 40 7 -5 6 2 -2
16 -16 28 -20 59 -8 59 5 0 6 6 3 14 -3 8 -1 17 5 21 8 4 6 16 -4 36 -9 16
-13 34 -10 39 3 5 1 12 -5 15 -8 5 -7 11 1 21 9 11 9 14 0 14 -7 0 -9 5 -6 10
3 6 1 10 -5 10 -6 0 -8 5 -5 10 3 6 0 10 -7 10 -8 1 -6 6 6 15 11 8 14 15 8
15 -16 0 -15 43 1 59 10 10 9 11 -4 6 -13 -5 -15 -1 -11 21 3 18 1 25 -6 20
-10 -6 -52 26 -52 39 0 3 0 10 0 15 0 6 -7 10 -15 10 -8 0 -15 7 -15 16 0 8
-4 12 -10 9 -6 -3 -7 1 -4 9 3 9 11 16 18 16 6 1 0 7 -14 15 -14 7 -36 34 -49
59 -12 25 -27 46 -32 46 -6 0 -7 5 -4 10 4 6 1 17 -5 25 -6 8 -8 20 -4 26 4 7
3 9 -3 6 -6 -4 -13 3 -17 16 -8 30 -7 39 2 33 4 -2 9 4 9 15 1 13 -2 17 -10
12 -9 -5 -9 -3 -1 8 7 8 11 25 10 39 -1 14 3 28 8 32 5 3 11 14 12 23 2 12 -2
15 -14 10 -9 -3 -13 -3 -9 1 4 4 0 18 -8 31 -14 21 -14 23 2 24 10 1 23 1 28
-1 6 -1 5 4 -2 11 -6 6 -9 18 -6 27 4 9 2 13 -4 9 -7 -4 -10 0 -9 9 1 9 17 22
34 30 18 7 32 19 32 26 0 10 -2 10 -9 -1 -8 -12 -12 -12 -26 2 -15 16 -15 17
6 17 21 0 21 1 5 19 -17 18 -18 52 -6 139 0 2 5 0 10 -3 6 -4 7 -11 4 -17 -4
-7 -2 -8 4 -4 14 8 4 36 -13 36 -33 0 -68 97 -37 108 8 2 9 9 2 23 -8 14 -7
19 2 19 7 0 4 6 -7 12 -35 19 -52 43 -59 81 -4 21 -11 35 -16 32 -4 -3 -7 7
-5 22 2 16 -4 36 -12 45 -8 9 -12 22 -8 27 3 6 1 11 -5 11 -7 0 -10 6 -7 14 3
8 -1 22 -9 33 -9 10 -12 12 -8 4 5 -10 3 -12 -5 -6 -7 4 -11 16 -8 26 3 11 1
17 -4 13 -5 -3 -9 1 -9 10 0 8 -3 16 -7 18 -5 2 -16 18 -25 36 -10 18 -13 30
-6 26 7 -4 8 -3 4 4 -4 7 -14 12 -22 12 -8 0 -14 10 -14 24 0 34 -10 56 -26
56 -17 0 -32 28 -29 57 1 14 -3 19 -12 16 -9 -4 -11 0 -7 11 4 11 -1 23 -12
32 -11 9 -13 12 -5 8 11 -5 13 -3 8 10 -5 13 -3 17 6 13 8 -3 13 4 14 22 0 14
-1 18 -4 9 -7 -28 -18 -21 -20 13 -2 28 -1 30 15 17 15 -11 15 -11 5 2 -6 8
-16 42 -22 74 -9 47 -8 62 1 68 7 4 9 8 4 8 -5 0 -3 7 4 15 7 8 17 12 23 8 6
-3 4 3 -5 15 -19 28 -12 79 13 85 10 3 19 13 19 22 0 11 5 15 15 11 9 -3 15 0
15 10 0 9 5 12 13 8 9 -5 9 -4 0 6 -10 11 -9 16 5 27 9 8 11 11 3 7 -10 -5
-12 -3 -7 5 5 7 15 10 23 7 10 -4 13 -2 10 8 -4 10 0 14 13 11 13 -3 17 1 13
11 -3 7 2 17 11 20 9 3 13 11 9 17 -4 6 0 8 10 4 9 -3 16 -3 16 1 -3 19 3 22
21 12 22 -12 27 -1 8 18 -16 16 4 16 21 0 9 -9 12 -9 7 -1 -3 6 7 21 23 33 20
14 28 26 24 37 -5 12 -3 14 8 7 21 -13 39 -14 36 -1 -1 6 9 16 23 24 14 7 19
13 11 13 -11 0 -11 3 -1 15 6 8 15 14 18 14 18 -2 51 14 46 22 -3 5 -10 6 -16
3 -7 -4 -8 -2 -4 5 4 6 11 9 16 6 5 -3 12 4 15 16 4 13 12 18 21 15 8 -3 13
-2 10 3 -7 12 22 23 37 14 6 -4 8 0 4 11 -6 14 -4 15 14 5 13 -7 19 -7 15 -1
-3 6 -2 13 3 17 6 3 8 11 5 18 -5 14 49 50 59 40 4 -3 14 0 23 8 10 8 20 13
23 11 3 -1 14 5 24 13 9 8 17 12 17 8 0 -4 7 2 15 13 8 10 15 15 15 11 0 -4
10 -2 23 5 28 15 57 18 57 5 0 -5 6 -5 13 2 10 8 17 7 27 -2 10 -9 11 -9 6 0
-4 7 2 17 13 22 25 14 44 14 36 0 -4 -6 2 -5 14 3 12 7 21 17 21 21 0 5 7 7
15 3 8 -3 15 -1 15 4 0 6 -4 10 -10 10 -5 0 -10 5 -10 12 0 6 3 9 6 5 11 -11
32 18 28 40 -3 15 3 26 16 33 11 6 20 18 20 26 0 8 5 12 10 9 6 -3 10 -1 10 5
0 6 6 8 13 5 6 -4 4 0 -5 8 -10 8 -18 22 -18 32 0 15 2 16 17 4 11 -10 14 -10
9 -1 -4 6 -3 12 2 12 13 0 11 30 -2 30 -6 0 -4 6 4 13 8 7 16 19 18 27 2 8 7
17 12 20 4 3 16 24 25 47 10 25 22 40 28 36 5 -3 7 -1 3 5 -3 6 -2 13 4 17 5
3 10 15 10 26 0 10 6 19 14 19 8 0 15 8 15 18 1 37 7 58 25 85 15 23 17 30 7
37 -11 6 -11 8 -1 12 7 2 14 15 15 29 1 16 8 24 19 23 13 -2 16 5 14 25 -2 20
1 26 16 26 10 0 22 10 27 22 6 16 13 21 25 16 10 -3 15 -2 12 3 -8 13 14 31
35 28 9 -1 15 3 14 9 -1 6 4 11 11 12 7 0 16 5 20 11 9 15 92 29 92 16 0 -5 7
-13 16 -16 15 -6 15 -4 3 10 -13 16 -10 17 36 11 32 -4 45 -3 36 2 -11 7 -6
12 20 19 23 6 36 5 41 -2 5 -7 8 -4 8 7 0 9 6 17 14 17 8 0 16 5 18 10 2 6 21
-4 43 -22 21 -18 35 -27 30 -19 -6 11 -4 13 7 8 9 -3 21 0 28 6 9 9 11 9 7 1
-4 -7 0 -15 9 -18 8 -3 12 -2 9 4 -8 12 -8 12 33 1 22 -7 30 -6 26 0 -3 6 2 9
12 8 11 -2 24 0 30 4 7 4 11 1 10 -6 0 -6 4 -13 9 -14 6 -2 10 5 10 14 0 9 6
18 14 21 10 3 12 0 8 -11 -5 -14 10 -34 42 -52 9 -5 12 -4 7 3 -4 7 -1 13 6
13 26 3 43 -3 51 -16 4 -8 16 -12 27 -10 13 3 20 -2 21 -13 0 -10 3 -12 6 -5
3 8 13 3 30 -15 l25 -27 -7 28 c-6 24 -5 26 11 20 11 -3 31 -14 45 -24 14 -10
29 -16 32 -12 4 3 14 0 24 -8 11 -9 14 -10 9 -1 -4 6 -2 12 3 12 6 0 11 -4 11
-9 0 -5 23 -8 50 -7 28 0 52 -3 54 -9 3 -5 5 -5 5 2 1 7 7 10 15 7 9 -4 13
-15 10 -32 -3 -20 -2 -23 5 -12 5 8 8 17 5 21 -7 11 19 16 46 9 14 -4 33 -3
43 2 10 5 25 7 32 4 8 -3 17 -1 21 5 4 6 11 6 20 -1 7 -7 19 -10 26 -7 8 3 6
6 -5 6 -10 1 -16 5 -13 10 3 4 17 6 31 3 15 -2 25 0 25 8 0 7 6 6 16 -4 18
-19 30 -20 39 -5 4 6 13 8 20 5 7 -2 21 4 30 14 10 11 22 17 27 14 4 -3 8 -2
7 3 -1 4 3 21 9 36 7 16 12 33 12 38 0 5 7 9 16 9 8 0 13 4 9 9 -3 5 3 11 12
13 12 2 18 12 18 28 0 17 6 25 17 25 9 0 20 4 25 9 4 5 3 6 -4 2 -19 -10 -26
13 -9 30 17 16 21 35 9 33 -20 -3 -24 2 -13 16 7 8 16 12 21 9 5 -3 6 1 4 8
-3 7 9 29 26 48 16 19 27 29 23 21 -5 -10 -3 -12 7 -5 28 17 48 13 68 -12 12
-15 18 -30 15 -35 -3 -5 0 -9 5 -9 6 0 11 -8 12 -17 0 -11 3 -13 6 -5 8 19 22
14 18 -7 -3 -15 0 -18 13 -14 15 6 16 5 2 -12 -8 -10 -10 -16 -4 -12 7 4 18
-7 28 -28 9 -18 28 -43 42 -54 14 -11 23 -25 19 -31 -4 -6 -1 -9 7 -8 9 2 12
-6 11 -24 -1 -22 3 -28 18 -28 16 0 19 -5 14 -22 -4 -16 -4 -19 3 -9 17 23 32
4 22 -27 -8 -22 -8 -24 2 -11 12 14 16 12 40 -13 15 -15 24 -28 20 -28 -4 -1
2 -8 13 -18 12 -9 24 -25 28 -35 4 -10 11 -15 17 -12 6 3 7 -1 4 -9 -3 -9 -1
-16 5 -16 13 0 43 -68 35 -81 -3 -5 2 -6 10 -3 12 5 16 0 16 -18 0 -13 5 -29
12 -36 7 -7 8 -12 3 -12 -5 0 0 -7 11 -16 10 -8 14 -13 8 -10 -7 3 -5 -8 4
-28 11 -24 26 -37 60 -49 37 -14 42 -15 32 -2 -18 22 -5 19 50 -13 28 -16 47
-32 43 -36 -4 -4 0 -4 10 0 9 3 24 1 32 -6 11 -9 15 -9 15 -1 0 7 10 5 27 -6
30 -20 32 -20 44 -1 6 8 12 9 17 3 9 -12 52 -16 52 -4 0 5 12 4 26 -1 32 -13
43 -12 24 0 -10 7 4 9 48 5 34 -3 62 -2 62 3 0 12 58 13 66 1 4 -6 10 -6 18 1
7 5 27 11 44 13 34 2 36 4 26 31 -4 11 -2 21 6 26 11 7 28 6 100 -4 8 -1 21
-5 28 -9 6 -5 12 -4 12 2 0 6 7 8 15 5 8 -4 12 -11 8 -17 -3 -6 -1 -7 6 -3 6
4 23 1 36 -8 13 -9 35 -16 49 -16 13 0 31 -6 38 -13 30 -29 108 -53 108 -34 0
5 5 5 13 -1 7 -6 43 -13 80 -16 38 -3 73 -8 78 -11 5 -4 9 0 9 7 0 10 2 10 8
0 7 -10 12 -8 24 5 19 22 20 53 1 53 -11 0 -43 57 -58 100 -1 3 -5 12 -9 21
-4 10 -6 23 -5 30 2 8 -2 23 -8 34 -6 11 -11 22 -11 25 0 3 -5 18 -11 33 -6
16 -9 33 -6 37 3 5 -13 28 -35 51 -22 23 -42 50 -45 60 -3 10 -14 21 -25 24
-19 6 -35 31 -39 65 0 6 -9 10 -19 10 -10 0 -47 14 -82 31 -35 17 -72 31 -82
32 -10 1 -18 5 -18 9 0 4 -9 8 -21 8 -11 0 -18 4 -15 9 6 9 -40 26 -61 22 -6
-1 -24 10 -39 24 -25 23 -75 33 -131 26 -7 -1 -22 3 -34 10 -12 6 -36 13 -53
16 -17 2 -38 13 -48 24 -9 10 -21 19 -27 19 -6 0 -8 7 -5 15 4 9 0 15 -10 15
-9 0 -25 9 -36 20 -11 11 -29 20 -39 20 -11 0 -22 4 -26 9 -6 10 -90 27 -112
23 -7 -2 -13 2 -13 8 0 6 -6 8 -12 4 -7 -4 -10 -4 -6 1 12 13 -12 35 -38 35
-13 0 -24 5 -24 10 0 6 -7 10 -16 10 -19 0 -128 69 -162 102 -22 23 -22 23 -2
26 31 5 24 16 -22 37 -24 10 -45 22 -48 26 -3 4 -23 21 -44 38 -21 17 -33 31
-25 31 7 0 3 7 -10 16 -26 19 -93 84 -85 84 3 0 -18 23 -46 51 -28 28 -55 47
-61 43 -7 -4 -10 -1 -7 7 5 14 -27 49 -44 49 -4 0 -8 6 -8 14 0 7 -9 16 -20
19 -21 5 -23 25 -5 40 6 5 4 7 -5 5 -16 -3 -67 42 -63 54 2 5 -2 8 -8 8 -5 0
-8 4 -5 8 3 4 -11 16 -29 27 -19 10 -37 26 -40 36 -3 10 -32 44 -63 76 -31 32
-56 62 -54 68 2 5 -2 5 -8 -1 -9 -9 -17 -7 -33 10 -12 11 -22 26 -22 31 -1 6
-6 9 -13 7 -7 -1 -12 5 -12 13 0 23 -39 53 -78 60 -21 4 -44 14 -53 23 -33 33
-78 66 -96 69 -59 10 -84 10 -135 1 -32 -6 -55 -14 -52 -19 3 -5 -3 -10 -13
-11 -10 0 -29 -2 -43 -3 -46 -4 -51 -5 -46 -13 2 -4 -19 -7 -47 -6 -29 0 -57
-3 -63 -8 -7 -5 -25 -8 -40 -8 -16 1 -42 -2 -59 -5 -16 -4 -41 -7 -55 -7 -14
-1 -27 -5 -30 -10 -8 -10 -82 11 -75 22 3 4 -4 6 -15 3 -12 -3 -20 0 -20 6 0
7 -4 10 -9 7 -5 -3 -12 2 -15 11 -6 14 -9 15 -15 4 -7 -11 -12 -11 -30 0 -11
8 -21 17 -21 22 0 4 -4 5 -10 2 -5 -3 -10 -2 -10 3 0 12 -49 34 -61 27 -5 -4
-9 -2 -9 4 0 6 -7 7 -17 4 -11 -4 -14 -3 -9 5 5 8 1 10 -10 5 -10 -4 -22 0
-30 11 -8 11 -18 15 -26 10 -11 -6 -11 -5 0 8 8 10 9 19 3 22 -5 3 -12 0 -14
-6 -4 -9 -6 -8 -6 3 -1 9 -21 22 -51 33 -28 10 -49 21 -46 23 3 3 -9 17 -26
32 -17 14 -39 33 -48 43 -10 9 -27 19 -39 23 -12 3 -21 10 -21 15 0 5 -9 12
-20 15 -11 3 -20 13 -20 21 0 8 -3 13 -7 13 -27 -4 -63 3 -58 11 3 6 1 10 -5
10 -6 0 -8 5 -5 10 3 6 -3 10 -14 10 -12 0 -21 7 -21 15 0 8 -5 15 -11 15 -5
0 -7 -5 -4 -11 4 -6 -2 -5 -14 3 -12 7 -21 17 -21 22 0 4 -8 6 -18 4 -12 -3
-24 2 -31 13 -6 11 -14 18 -19 18 -31 -5 -43 2 -37 22 6 18 4 19 -12 11 -12
-7 -23 -7 -34 1 -23 17 -25 22 -14 38 6 8 3 7 -6 -2 -14 -15 -17 -15 -38 2
-13 11 -28 16 -35 12 -7 -5 -7 -2 1 8 11 13 8 16 -17 17 -71 4 -80 5 -80 12 0
4 -18 7 -41 8 -22 1 -45 4 -49 7 -5 3 -11 1 -14 -4 -7 -11 -135 -11 -142 1 -3
4 -10 5 -16 2 -6 -4 -5 -10 3 -15 12 -8 12 -10 0 -18 -8 -5 -20 -7 -28 -4 -8
3 -13 2 -12 -3 4 -22 -2 -34 -18 -34 -15 0 -16 -2 -3 -10 13 -9 13 -10 0 -10
-9 0 -31 -14 -49 -30 -26 -24 -36 -28 -47 -19 -11 9 -14 8 -14 -5 0 -8 -15
-23 -32 -32 -18 -9 -35 -20 -38 -23 -3 -3 -12 -6 -20 -6 -8 0 -15 -9 -15 -20
0 -14 -6 -19 -18 -17 -9 2 -16 -1 -15 -7 2 -5 0 -8 -3 -8 -4 1 -17 -7 -30 -18
-13 -12 -19 -14 -14 -5 4 8 -1 6 -12 -5 -11 -11 -18 -24 -15 -29 3 -5 -2 -7
-10 -3 -10 3 -29 -7 -52 -29 -36 -35 -56 -43 -56 -21 0 8 -3 8 -9 -2 -5 -8
-22 -14 -39 -15 -17 0 -28 -5 -25 -10 3 -4 -4 -5 -15 -2 -11 4 -23 2 -26 -3
-4 -6 -19 -19 -34 -30 -21 -14 -32 -17 -43 -9 -11 8 -11 9 3 5 9 -3 19 0 22 8
4 11 -1 12 -25 3 -16 -5 -27 -13 -25 -17 3 -4 -5 -8 -17 -9 -12 -1 -40 -3 -62
-5 -22 -2 -54 -11 -70 -19 -17 -9 -54 -18 -82 -20 -28 -2 -59 -10 -68 -18 -14
-12 -18 -12 -26 1 -8 13 -14 5 -10 -15 1 -5 -5 -4 -13 3 -8 7 -21 9 -27 5 -21
-13 -170 -13 -162 0 3 6 0 6 -8 -1 -15 -15 -33 -18 -25 -5 3 5 -1 9 -9 9 -8 0
-15 -4 -15 -9 0 -5 -8 -5 -17 0 -10 5 -45 7 -77 6 -33 -2 -65 1 -72 7 -15 13
-54 3 -54 -14 0 -8 3 -8 12 1 7 7 17 12 23 12 5 0 2 -7 -8 -15 -20 -14 -70
-10 -76 6 -2 6 -18 -4 -37 -22 -29 -29 -43 -34 -111 -41 -7 -1 -10 -5 -7 -9 2
-4 -5 -10 -16 -14 -11 -3 -20 -12 -20 -19 0 -21 -27 -40 -36 -25 -4 7 -3 9 3
6 5 -3 10 0 10 7 0 11 -4 12 -18 3 -10 -6 -15 -15 -13 -19 3 -5 -2 -11 -10
-14 -9 -3 -14 -9 -11 -14 2 -4 -7 -6 -20 -4 -22 2 -30 -6 -26 -28 0 -5 -3 -8
-9 -8 -6 0 -10 -3 -9 -7 3 -20 -15 -53 -27 -53 -8 0 -18 -9 -22 -19 -4 -11
-10 -20 -14 -20 -5 -1 -14 -1 -20 -2 -7 0 -4 -4 7 -9 11 -5 14 -9 7 -9 -16 -1
-42 -26 -42 -40 0 -15 -52 -52 -67 -47 -8 3 -13 -2 -13 -14 0 -10 -4 -21 -10
-25 -5 -3 -6 -13 -3 -22 5 -12 2 -15 -14 -11 -12 3 -20 0 -20 -8 0 -7 4 -11 8
-8 4 2 11 0 14 -6 4 -6 3 -10 -2 -9 -13 3 -43 -12 -43 -22 0 -4 8 -6 18 -4 9
3 4 -1 -13 -9 -16 -8 -25 -15 -20 -16 6 0 2 -7 -9 -15 -10 -8 -16 -20 -13 -28
3 -8 -3 -20 -14 -28 -11 -8 -19 -25 -19 -42 0 -16 -7 -30 -16 -34 -8 -3 -13
-11 -10 -19 3 -8 -2 -11 -15 -9 -11 2 -17 0 -14 -6 4 -5 14 -9 23 -9 14 0 15
-2 2 -10 -8 -5 -12 -11 -9 -15 6 -5 103 -18 129 -16 8 1 34 2 58 4 29 1 41 6
37 15 -2 6 2 12 10 12 8 0 22 9 32 19 10 11 36 22 58 26 47 9 81 24 53 25 -22
0 -22 1 -4 35 9 17 16 22 19 13 3 -7 6 -3 6 9 1 19 6 21 49 18 26 -2 50 -3 54
-4 5 -1 3 -36 -2 -36 -1 0 -3 -16 -6 -35 -4 -33 -34 -79 -34 -52 0 7 -7 12
-15 12 -18 0 -20 -26 -2 -33 7 -3 5 -6 -6 -6 -9 -1 -16 -7 -15 -13 2 -7 -5
-12 -14 -12 -10 1 -15 -2 -12 -7 3 -5 -1 -9 -8 -9 -10 0 -10 -2 1 -9 19 -12
-12 -21 -61 -17 -35 3 -36 2 -26 -18 10 -19 10 -20 -5 -7 -15 12 -17 11 -17
-9 0 -14 -5 -20 -13 -17 -8 3 -20 -3 -27 -13 -8 -11 -17 -17 -22 -14 -4 3 -8
0 -8 -7 0 -8 -4 -8 -13 -1 -7 6 -18 7 -27 2 -7 -4 -23 -4 -36 0 -12 5 -25 6
-28 3 -3 -4 -6 -2 -6 4 0 6 -17 10 -40 9 -30 -2 -40 2 -40 13 0 10 -3 12 -8 6
-9 -14 -62 -18 -62 -6 0 6 -14 9 -30 9 -17 -1 -33 2 -37 5 -3 4 -12 2 -20 -4
-9 -9 -13 -8 -13 0 0 6 -4 11 -10 11 -5 0 -9 -3 -9 -7 3 -20 -2 -24 -15 -14
-11 9 -16 9 -21 0 -6 -8 -10 -7 -16 2 -6 10 -9 10 -9 2 0 -9 -7 -8 -27 2 -21
11 -29 11 -35 2 -5 -8 -9 -6 -14 6 -3 9 -10 17 -16 17 -5 0 -6 -4 -3 -10 3 -5
-1 -10 -9 -10 -9 0 -16 -4 -16 -10 0 -12 -22 -9 -33 5 -5 6 -7 1 -4 -12 3 -15
1 -20 -8 -17 -7 3 -16 1 -20 -5 -3 -6 -13 -11 -21 -11 -8 0 -20 -5 -27 -10 -7
-6 -38 -31 -69 -56 -32 -26 -56 -49 -53 -53 2 -4 -7 -15 -21 -26 -39 -29 -74
-63 -74 -72 0 -5 -13 -25 -30 -45 -16 -20 -39 -57 -50 -82 -17 -40 -101 -171
-119 -186 -15 -13 -61 -80 -61 -89 0 -6 -4 -11 -9 -11 -6 0 -8 -9 -6 -20 2
-13 -6 -26 -25 -40 -27 -19 -42 -45 -45 -80 -1 -8 -2 -25 -3 -37 -1 -12 -16
-34 -32 -50 -17 -15 -30 -35 -30 -43 0 -9 -5 -21 -12 -28 -7 -7 -9 -12 -5 -12
4 0 0 -16 -8 -36 -8 -20 -15 -45 -15 -56 0 -10 -7 -21 -15 -24 -8 -4 -13 -10
-10 -14 3 -5 1 -11 -4 -15 -6 -3 -20 -26 -32 -50 -13 -25 -39 -58 -58 -72 -20
-15 -46 -38 -58 -52 -13 -15 -26 -26 -30 -27 -5 0 -21 -6 -38 -14 -16 -7 -50
-15 -75 -17 -25 -2 -58 -14 -73 -25 -16 -11 -31 -18 -33 -15 -3 3 -16 -6 -29
-19 -13 -13 -31 -24 -40 -24 -25 0 -155 -72 -155 -86 0 -7 -11 -25 -24 -41
-13 -15 -27 -39 -31 -53 -4 -14 -11 -29 -15 -35 -4 -5 -15 -36 -25 -67 -9 -31
-26 -66 -38 -78 -13 -14 -20 -36 -20 -61 0 -21 -4 -36 -8 -33 -5 3 -6 -1 -3
-9 2 -7 0 -25 -5 -39 -5 -14 -7 -29 -3 -32 3 -4 7 -17 9 -29 5 -29 33 -57 40
-39 3 6 16 12 29 12 14 0 22 4 19 10 -6 10 1 12 42 13 12 0 21 5 20 11 -1 6 4
10 11 9 6 -2 12 2 12 7 0 6 7 10 15 10 8 0 15 5 15 10 0 6 8 10 17 10 9 0 25
8 36 18 13 10 17 11 12 3 -6 -11 -4 -13 8 -8 9 3 19 1 23 -5 5 -7 8 -7 13 1 4
5 17 8 29 4 12 -3 19 -10 15 -16 -4 -7 0 -8 13 -3 10 4 26 9 34 11 8 2 17 4
20 5 3 1 13 1 24 0 10 -1 15 3 12 8 -4 6 2 8 14 5 11 -3 17 -10 13 -16 -4 -6
0 -8 10 -4 9 3 19 2 22 -3 3 -5 13 -6 22 -3 10 4 14 2 10 -4 -4 -6 2 -13 14
-16 16 -4 18 -3 8 9 -9 11 -8 14 4 14 9 0 18 -4 21 -9 3 -4 18 -6 32 -3 20 4
25 2 19 -8 -5 -9 -4 -11 3 -6 7 4 12 14 12 23 0 11 6 14 23 9 12 -3 26 -6 30
-6 5 0 5 -6 1 -12 -6 -10 -4 -10 7 -2 8 6 24 11 37 12 13 0 31 10 40 22 14 17
30 22 83 24 37 2 71 6 77 10 8 5 148 17 219 18 13 0 21 3 19 7 -3 4 8 6 24 5
16 -1 47 2 67 8 21 5 49 9 63 8 40 -3 62 -2 112 4 29 3 48 2 48 -4 0 -6 7 -10
16 -10 9 0 12 5 8 12 -4 6 -3 8 3 5 6 -4 37 3 69 14 80 28 89 30 165 33 36 2
76 9 88 16 13 6 34 9 48 5 16 -4 29 -1 34 6 4 7 36 13 75 15 77 4 93 6 112 17
6 5 12 6 12 2 0 -3 10 0 23 7 12 7 27 12 32 13 21 1 95 39 95 49 0 6 4 5 9 -3
12 -19 49 2 62 36 8 20 14 24 36 20 20 -4 33 3 62 33 40 41 89 59 102 38 7
-10 9 -9 9 4 0 19 50 58 74 58 14 0 30 11 80 55 6 6 17 11 24 13 23 4 62 34
57 42 -3 4 7 16 21 25 18 12 24 13 19 4 -3 -8 -1 -7 7 2 36 44 107 48 158 9
22 -17 22 -20 6 -20 -13 0 -17 -5 -13 -20 3 -13 -7 -34 -31 -62 -50 -59 -219
-228 -227 -228 -4 0 -30 -24 -58 -52 -29 -29 -70 -62 -91 -73 -22 -11 -80 -50
-129 -87 -49 -38 -92 -68 -96 -68 -4 0 -21 -13 -38 -29 -18 -16 -54 -40 -80
-53 -26 -12 -49 -26 -51 -30 -2 -5 -8 -8 -14 -8 -5 0 -24 -11 -42 -25 -18 -14
-36 -25 -40 -25 -4 0 -14 -6 -22 -14 -7 -8 -35 -22 -61 -32 -27 -10 -50 -21
-53 -24 -3 -4 -17 -10 -32 -13 -15 -4 -33 -13 -40 -20 -25 -24 -73 -53 -128
-76 -30 -13 -80 -36 -110 -52 -31 -15 -67 -30 -80 -33 -35 -6 -63 -18 -77 -32
-7 -7 -29 -11 -50 -9 -37 4 -72 -8 -85 -30 -9 -14 -83 -18 -106 -6 -12 6 -24
5 -36 -4 -10 -8 -24 -11 -32 -8 -8 3 -17 -2 -20 -11 -3 -9 -15 -16 -25 -16
-10 0 -19 -3 -19 -8 0 -4 -9 -13 -21 -20 -19 -12 -19 -11 -9 7 10 20 9 20 -14
9 -14 -6 -23 -14 -21 -18 3 -4 -3 -7 -12 -6 -13 1 -19 -10 -24 -39 -4 -22 -3
-45 3 -52 6 -8 4 -22 -6 -41 -9 -17 -15 -45 -15 -63 1 -19 -5 -68 -12 -109 -7
-41 -14 -113 -15 -160 -3 -77 -6 -108 -17 -192 -3 -16 0 -28 5 -28 5 0 6 -4 3
-10 -3 -5 -8 -33 -11 -62 -3 -29 -9 -68 -14 -87 -5 -19 -5 -41 -1 -50 5 -9 9
-39 8 -67 0 -29 3 -56 6 -61 4 -6 4 -34 1 -62 -4 -41 -1 -59 15 -86 14 -24 16
-35 8 -39 -9 -3 -9 -5 1 -5 6 -1 12 -9 12 -19 0 -10 7 -28 16 -40 8 -12 12
-22 9 -22 -11 0 60 -123 88 -151 15 -15 27 -30 27 -33 0 -19 108 -194 141
-229 22 -22 42 -51 45 -64 4 -13 10 -23 14 -23 4 0 11 -11 14 -24 3 -14 19
-39 36 -57 16 -18 29 -35 28 -38 -2 -17 16 -71 24 -71 5 0 6 -5 3 -11 -4 -5 1
-26 10 -46 19 -39 15 -105 -7 -146 -7 -12 -13 -26 -14 -32 0 -5 -2 -12 -3 -15
-5 -11 -13 -46 -16 -73 -2 -16 -10 -36 -19 -46 -9 -10 -13 -21 -9 -24 3 -4 -1
-7 -10 -7 -10 0 -17 -7 -17 -15 0 -8 -1 -17 -2 -20 -1 -2 -5 -34 -9 -70 -5
-53 -3 -76 13 -118 11 -29 26 -60 35 -69 8 -9 12 -22 8 -28 -4 -6 -2 -16 3
-23 6 -7 15 -38 21 -70 6 -32 13 -62 16 -66 2 -5 -4 -35 -16 -67 -11 -33 -23
-98 -26 -147 -4 -59 -11 -93 -22 -105 -15 -17 -43 -32 -57 -31 -4 0 -10 -4
-14 -11 -4 -6 -16 -13 -26 -14 -10 -2 -25 -14 -31 -27 -8 -14 -13 -18 -13 -9
-1 8 -7 3 -16 -12 -8 -16 -21 -28 -28 -28 -8 0 -25 -13 -38 -29 -23 -26 -62
-48 -80 -43 -5 1 -8 -2 -8 -7 0 -8 -35 -22 -44 -18 -1 1 -10 -4 -19 -12 -10
-7 -17 -10 -17 -6 0 5 -29 -22 -65 -58 -42 -43 -65 -75 -65 -90 0 -13 -6 -29
-12 -35 -7 -7 -13 -34 -14 -60 0 -26 -7 -74 -14 -106 -6 -32 -13 -113 -14
-179 l-2 -120 -34 -33 -33 -33 -26 20 c-40 32 -54 75 -54 164 1 56 7 95 20
130 11 28 18 56 16 63 -4 10 0 34 22 122 1 3 5 16 8 30 4 14 8 35 10 47 2 12
6 25 9 29 4 3 4 12 1 20 -3 8 0 14 5 14 6 0 13 9 17 19 6 19 52 67 125 130 30
27 58 37 75 29 2 -2 12 7 20 20 9 12 20 22 25 22 5 0 26 16 46 35 20 19 41 32
46 28 7 -3 8 -1 4 5 -4 7 -2 12 3 12 6 0 11 6 11 14 0 8 5 18 12 22 7 4 8 3 4
-4 -5 -8 -2 -10 8 -6 9 3 13 10 10 15 -3 5 0 9 7 9 7 0 21 8 32 17 11 10 17
12 13 5 -7 -11 -4 -12 13 -3 11 7 21 15 21 20 0 5 11 9 25 10 14 1 36 3 50 4
14 1 25 6 25 11 0 4 6 6 14 3 28 -11 38 17 25 70 -13 50 -42 107 -51 98 -2 -3
-5 1 -5 7 0 7 -8 42 -18 78 -9 36 -19 78 -21 94 -2 16 -10 37 -18 45 -48 55
-52 284 -7 372 11 20 17 40 13 45 -4 4 -1 4 6 0 7 -4 12 -1 12 8 0 8 5 16 10
18 10 3 17 35 19 80 1 9 8 24 17 33 23 23 12 98 -21 136 -14 17 -23 34 -21 38
3 4 -8 22 -23 39 -16 17 -26 33 -23 36 3 3 -5 15 -17 25 -13 11 -20 24 -17 29
6 10 -40 62 -55 62 -5 0 -13 17 -18 38 -6 20 -20 44 -31 52 -11 8 -20 18 -20
23 0 5 -8 21 -19 35 -10 15 -22 38 -26 50 -4 13 -16 33 -27 44 -11 11 -26 34
-33 52 -8 18 -21 38 -29 45 -23 19 -91 169 -82 179 3 2 0 14 -6 26 -16 29 -20
50 -21 133 -1 39 -5 69 -10 66 -4 -3 -7 17 -7 44 1 26 0 67 -3 90 -3 24 -2 43
3 43 4 0 7 46 6 103 -1 57 4 125 11 154 7 28 12 84 11 125 -1 40 1 79 5 86 5
7 3 12 -5 12 -11 0 -11 2 0 8 14 9 17 23 27 122 3 36 10 79 15 95 4 17 11 50
14 75 7 45 6 46 -25 48 -17 1 -40 7 -51 13 -13 7 -23 7 -31 0 -16 -13 -40 -9
-63 9 -17 14 -18 13 -6 -1 11 -15 7 -16 -40 -15 -29 1 -53 7 -56 14 -2 7 -9
12 -17 12 -7 0 -18 7 -25 15 -9 11 -16 12 -25 5 -9 -7 -16 -6 -25 5 -7 8 -16
12 -21 9 -5 -3 -9 0 -9 5 0 6 -9 11 -21 11 -15 0 -19 4 -15 16 5 13 3 14 -6 7
-18 -14 -58 -23 -58 -13 0 10 -40 22 -68 20 -14 -1 -21 3 -20 11 2 8 -11 13
-37 15 -52 2 -77 13 -71 30 6 14 -27 38 -38 27 -3 -3 -14 4 -25 15 -19 22 -37
31 -26 12 4 -6 -5 -5 -19 2 -14 6 -26 19 -26 29 0 10 -12 21 -30 27 -22 8 -28
15 -24 29 5 16 4 16 -8 3 -7 -8 -24 -15 -38 -15 -19 0 -24 5 -22 19 3 13 -1
17 -12 13 -11 -4 -18 5 -27 31 -6 20 -19 46 -29 57 -31 35 -37 58 -44 153 -5
67 -3 98 5 108 6 8 14 31 16 51 2 21 7 40 11 43 5 3 16 21 25 40 10 19 26 49
36 65 10 17 17 33 14 37 -2 4 6 17 17 28 11 11 18 25 15 29 -2 5 2 14 10 21 8
7 15 20 15 29 1 23 57 86 78 86 9 0 17 7 18 15 0 8 2 20 2 26 1 7 28 24 60 40
31 16 60 33 64 39 5 6 8 6 8 1 0 -6 5 -5 12 2 7 7 25 12 40 12 19 0 40 12 67
39 44 44 59 52 82 40 29 -15 131 44 169 98 19 27 37 50 41 53 3 3 12 23 19 45
7 22 18 54 25 70 7 17 21 53 30 80 10 28 24 57 32 66 8 9 17 34 20 55 3 22 16
53 29 71 13 17 24 34 24 37 0 3 16 30 35 60 19 30 35 63 35 72 0 10 3 14 6 11
4 -4 25 19 47 51 22 31 42 59 46 62 3 3 17 25 30 50 14 25 28 47 31 50 4 3 19
29 34 59 15 30 36 62 46 71 11 10 20 23 20 29 0 6 11 16 25 21 14 5 25 14 25
19 0 5 9 11 20 14 11 3 23 13 27 24 8 22 55 73 67 73 5 0 18 8 29 18 15 12 19
13 13 2 -4 -9 -2 -8 7 3 8 9 20 17 28 17 8 0 30 10 49 22 19 12 48 21 63 19
20 -1 26 2 21 10 -5 9 2 10 25 6 20 -4 30 -3 26 3 -3 6 -3 11 2 11 36 6 53 5
53 -3 0 -4 10 -2 23 6 12 8 33 17 47 21 14 4 36 16 49 26 13 10 28 16 34 12 6
-3 7 -1 3 5 -4 7 -2 12 3 12 6 0 11 5 11 11 0 5 -4 7 -10 4 -5 -3 -10 -1 -10
5 0 7 7 9 16 6 9 -3 25 4 40 20 22 21 28 23 42 12 14 -12 14 -11 2 9 -8 12
-18 20 -22 17 -4 -3 -5 2 -2 10 3 9 11 16 16 16 6 0 8 7 4 15 -3 10 1 15 12
15 15 0 15 2 2 10 -13 9 -13 10 0 11 8 1 18 1 22 0 9 -1 4 27 -7 36 -4 4 -5 1
0 -7 7 -12 6 -13 -6 -2 -12 11 -12 14 1 22 19 12 33 13 25 1 -3 -5 0 -13 6
-17 7 -4 9 -3 5 4 -3 5 0 13 6 15 10 4 10 6 1 6 -21 1 -15 18 8 24 17 5 19 9
10 26 -10 18 -9 20 6 14 12 -5 15 -2 10 10 -3 9 -2 19 4 23 6 3 14 17 20 31 5
13 13 21 19 18 5 -3 10 -1 10 4 0 6 7 11 16 11 9 0 12 5 8 12 -5 8 -2 9 9 5
17 -6 21 4 18 43 0 10 1 11 5 3 3 -7 13 -13 22 -13 15 0 15 2 2 10 -13 8 -12
10 5 11 11 1 24 1 28 0 5 -1 6 3 2 9 -4 6 -1 17 5 25 6 8 9 18 6 24 -4 5 3 12
14 16 11 4 18 11 15 16 -4 5 1 9 10 9 9 0 13 5 10 11 -9 14 24 49 40 43 10 -4
12 1 9 18 -2 13 -2 18 2 11 3 -7 12 -9 20 -6 7 3 11 10 7 16 -4 7 0 8 11 4 13
-5 19 -1 23 13 5 17 8 18 21 8 11 -9 13 -9 9 -1 -4 7 1 14 14 18 14 5 18 12
14 23 -5 13 -3 13 14 -2 18 -16 19 -16 17 1 -1 12 5 17 18 15 13 -3 17 1 13
12 -4 9 -3 15 1 15 22 -4 42 2 37 11 -4 6 8 10 30 10 20 0 34 4 31 8 -8 14 36
32 69 30 17 -1 41 2 54 6 16 6 21 5 17 -3 -9 -15 -2 -14 41 4 19 8 43 15 52
14 10 0 11 -2 4 -6 -7 -2 -13 -9 -13 -15 0 -6 7 -4 17 3 22 19 90 21 97 3 4
-11 19 -13 63 -9 32 3 72 7 90 8 17 1 29 5 27 8 -6 11 70 5 78 -6 4 -5 10 -2
14 8 5 15 9 15 22 5 12 -10 14 -10 8 0 -5 8 1 12 20 12 22 0 24 -2 14 -15 -8
-9 3 -7 32 7 23 12 51 25 62 30 12 7 16 6 11 -1 -3 -6 -1 -11 4 -11 6 0 11 5
11 10 0 6 12 10 28 10 19 0 23 3 14 9 -9 5 12 9 54 10 45 1 70 -3 76 -11 6
-10 8 -9 8 3 0 9 11 22 25 29 13 7 21 18 18 23 -4 6 0 8 11 4 9 -4 30 0 46 8
16 8 31 11 34 6 7 -11 46 -2 46 10 0 5 8 9 17 9 9 0 13 3 10 7 -8 7 11 33 25
33 5 0 6 -5 2 -11 -4 -7 -1 -10 7 -7 8 3 13 11 11 17 -1 7 11 18 28 25 17 7
27 16 23 21 -5 5 -1 4 8 -3 14 -10 18 -10 23 3 3 9 2 13 -4 10 -6 -3 -10 -4
-10 -1 0 3 10 10 21 17 15 8 19 8 15 0 -11 -18 6 -13 20 7 7 9 14 12 14 6 0
-17 28 -25 36 -12 4 7 3 8 -4 4 -7 -4 -12 -2 -12 3 0 6 5 11 11 11 5 0 8 4 4
10 -9 14 32 50 50 44 8 -4 15 -2 15 4 0 18 70 83 82 76 7 -4 8 -3 4 4 -5 8 1
12 15 12 12 0 20 3 16 6 -6 6 16 34 27 34 2 0 12 -8 22 -17 16 -16 16 -16 9 6
-4 15 -3 21 3 17 5 -3 15 1 22 9 7 9 23 13 36 11 15 -3 22 -1 18 6 -4 7 2 8
17 2 13 -4 45 -8 70 -9 25 -1 51 -5 58 -9 6 -4 18 -3 25 3 15 13 62 15 96 6
14 -4 36 -8 50 -9 19 -1 24 -6 22 -20 -3 -14 1 -17 14 -12 15 6 15 4 3 -11
-11 -13 -11 -15 -1 -9 8 5 22 1 34 -11 21 -17 21 -17 15 0 -5 13 -3 17 5 14 7
-2 12 -11 10 -18 -2 -8 0 -11 3 -7 10 9 65 -19 65 -33 0 -6 6 -16 13 -23 16
-16 50 -29 42 -16 -9 14 2 12 41 -6 19 -9 34 -23 34 -31 0 -10 6 -13 15 -9 10
4 19 -2 25 -17 5 -12 9 -16 9 -9 1 22 29 13 63 -20 18 -18 36 -33 41 -34 4 -1
9 -3 12 -4 3 -1 10 -3 15 -4 6 0 14 -6 18 -12 4 -6 15 -13 25 -17 9 -3 17 -13
17 -22 0 -8 7 -15 15 -15 9 0 18 -7 21 -15 4 -8 10 -15 16 -15 5 0 16 -6 23
-12 35 -32 45 -38 60 -38 9 0 13 -4 10 -10 -6 -9 8 -14 28 -11 4 0 7 -4 7 -10
0 -6 7 -18 16 -26 9 -10 11 -18 6 -22 -6 -3 13 -6 41 -5 57 1 81 -8 110 -40
10 -12 15 -15 11 -7 -10 21 17 3 39 -26 10 -13 25 -23 33 -23 8 0 14 -4 14 -8
0 -13 89 -18 99 -5 3 4 33 8 66 7 33 0 65 3 70 6 6 4 28 8 50 8 22 1 41 6 43
12 2 5 8 10 13 10 6 0 7 -6 3 -12 -5 -9 -2 -9 9 1 9 7 17 10 17 6 0 -5 8 -1
18 7 9 9 31 16 49 16 17 0 42 6 55 13 29 15 99 20 115 7 6 -5 26 -7 42 -5 17
3 29 1 26 -3 -3 -5 -1 -11 5 -15 6 -4 10 5 10 20 0 24 3 25 43 22 44 -4 116
-39 130 -63 4 -8 16 -14 25 -15 14 0 13 -2 -3 -9 -20 -8 -19 -9 1 -9 12 -1 27
-8 34 -16 7 -9 15 -13 18 -11 6 7 62 -26 62 -35 0 -4 19 -25 41 -48 23 -22 35
-41 28 -41 -8 -1 0 -7 17 -14 17 -8 34 -24 37 -36 3 -12 10 -19 15 -16 6 3 13
-5 16 -19 4 -14 31 -50 61 -80 30 -30 55 -57 55 -60 0 -10 73 -74 81 -70 3 3
13 -3 20 -12 8 -10 9 -14 2 -10 -6 4 -14 3 -18 -3 -3 -5 -1 -10 6 -10 7 0 10
-3 6 -6 -7 -8 24 -44 39 -44 6 0 19 -11 28 -24 8 -14 25 -27 36 -31 11 -4 20
-15 20 -26 0 -11 4 -18 9 -14 10 5 24 -11 27 -30 1 -6 17 -27 35 -47 19 -19
48 -54 64 -76 17 -23 38 -44 48 -47 10 -4 29 -17 44 -31 14 -13 33 -24 41 -24
8 0 39 -16 68 -35 29 -19 64 -35 77 -35 14 0 27 -3 29 -8 6 -15 99 -85 104
-79 3 3 19 -8 35 -24 15 -16 31 -29 35 -29 4 0 13 -8 20 -17 9 -14 16 -15 24
-7 13 13 50 7 50 -7 0 -5 3 -8 8 -8 4 1 14 1 22 0 12 -1 12 -3 2 -10 -11 -7
-11 -9 2 -14 9 -4 16 -1 16 5 0 9 3 9 12 0 7 -7 23 -12 36 -12 13 0 21 -3 19
-7 -3 -5 8 -9 25 -9 17 -1 33 -6 37 -11 9 -14 53 -24 44 -10 -4 7 0 8 13 3 10
-5 30 -9 44 -10 14 0 36 -11 49 -23 13 -12 29 -19 37 -16 8 3 14 0 14 -6 0 -6
7 -11 16 -11 14 0 14 -3 4 -15 -10 -12 -9 -15 5 -15 12 0 16 -6 13 -18 -5 -16
0 -18 34 -15 35 4 44 0 69 -28 25 -28 30 -30 46 -18 9 8 14 9 10 3 -4 -7 0
-15 9 -18 8 -3 12 -2 9 4 -3 6 -2 10 2 10 9 0 49 -61 46 -71 -1 -3 4 -6 12 -6
8 0 12 4 9 8 -2 5 9 3 26 -3 22 -7 33 -18 37 -38 4 -21 10 -27 21 -23 10 4 13
2 8 -5 -4 -7 -2 -12 3 -12 6 0 10 -3 8 -8 -1 -4 2 -8 6 -9 12 -2 47 -44 47
-55 0 -5 -4 -6 -10 -3 -5 3 -10 2 -10 -3 0 -6 7 -12 15 -16 8 -3 15 -17 15
-31 0 -17 6 -25 17 -25 9 0 14 -3 10 -6 -3 -3 3 -14 14 -25 11 -11 17 -23 15
-28 -3 -5 6 -21 19 -35 14 -15 25 -31 25 -36 0 -4 4 -10 10 -12 5 -1 11 -15
12 -31 2 -17 7 -26 15 -23 11 5 22 -15 30 -54 5 -24 13 -73 17 -100 2 -14 5
-27 6 -30 5 -11 -3 -66 -11 -81 -5 -9 -20 -19 -33 -23 -14 -3 -27 -14 -31 -25
-7 -24 -70 -81 -89 -81 -9 0 -13 -6 -10 -15 9 -21 -46 -65 -81 -65 -9 0 -13
-4 -10 -10 3 -5 1 -10 -4 -10 -22 0 -26 -2 -43 -17 -10 -9 -18 -13 -18 -8 0 4
-8 -3 -18 -15 -16 -19 -38 -27 -89 -32 -7 -1 -10 -5 -7 -10 3 -4 -3 -11 -13
-15 -10 -3 -26 -14 -35 -24 -11 -11 -27 -16 -44 -13 -15 3 -23 1 -20 -5 7 -11
-13 -9 -31 2 -8 5 -13 3 -13 -3 0 -6 -9 -10 -19 -8 -11 2 -30 -7 -43 -19 -12
-12 -34 -24 -48 -27 -63 -13 -78 -17 -125 -35 -27 -10 -69 -24 -92 -30 -23 -6
-48 -18 -56 -25 -18 -19 -62 -32 -52 -16 6 9 3 9 -13 1 -31 -17 -50 -13 -88
15 -19 15 -37 24 -41 20 -3 -3 8 -35 25 -71 18 -35 32 -74 32 -85 0 -12 5 -31
12 -43 7 -12 14 -33 16 -47 7 -50 40 -110 61 -111 30 -2 33 -3 61 -19 35 -19
63 -24 54 -8 -6 10 -4 10 8 0 11 -9 37 -11 94 -6 44 3 90 7 104 8 14 1 31 6
39 10 10 7 12 5 6 -3 -6 -10 -3 -11 14 -2 12 7 26 9 31 6 5 -3 11 -1 14 4 3 5
23 8 43 8 36 -2 37 -3 39 -45 1 -36 -1 -41 -13 -31 -11 10 -13 10 -11 -1 2 -8
-9 -17 -27 -21 -16 -4 -25 -7 -20 -8 13 -3 -29 -20 -75 -32 -36 -10 -159 -20
-270 -22 -65 -2 -65 -2 -68 -33 -2 -16 6 -51 17 -77 11 -26 19 -47 16 -47 -2
0 11 -37 27 -82 19 -51 32 -106 34 -143 4 -81 11 -146 18 -152 3 -4 1 -12 -5
-20 -7 -8 -8 -13 -1 -13 5 0 13 -26 18 -57 4 -32 9 -65 11 -73 8 -46 12 -200
5 -200 -11 0 -9 -53 3 -66 9 -11 42 -11 53 0 2 3 13 1 23 -4 10 -6 19 -6 21
-1 8 22 39 -20 44 -60 3 -24 12 -57 19 -74 14 -36 13 -87 -5 -175 -13 -66 -18
-95 -19 -118 -1 -7 -5 -11 -10 -8 -5 4 -8 -2 -7 -11 3 -21 -23 -65 -34 -58 -4
3 -14 -3 -21 -12 -12 -15 -12 -16 5 -10 16 7 17 5 5 -9 -7 -9 -24 -20 -37 -25
-16 -6 -22 -14 -18 -25 3 -8 2 -12 -4 -9 -5 3 -18 -5 -29 -17 -16 -16 -18 -24
-9 -30 10 -6 9 -8 -2 -9 -10 0 -8 -3 5 -9 l20 -9 -20 -1 c-19 -1 -19 -2 2 -10
16 -6 21 -15 18 -31 -2 -12 0 -30 5 -39 6 -11 6 -20 1 -22 -12 -4 -17 -90 -7
-106 10 -16 5 -94 -7 -110 -5 -7 -12 -29 -14 -49 -2 -21 -12 -46 -21 -57 -9
-11 -11 -16 -4 -12 17 10 15 -2 -3 -20 -8 -8 -12 -21 -9 -29 3 -7 -4 -18 -16
-25 -11 -6 -17 -16 -14 -22 4 -6 -6 -22 -22 -36 -16 -13 -23 -21 -16 -18 6 4
12 2 12 -3 0 -6 -5 -11 -10 -11 -28 0 -140 -147 -124 -163 3 -3 -4 -11 -16
-17 -15 -8 -20 -18 -17 -31 3 -10 1 -17 -4 -13 -5 3 -9 -2 -9 -11 0 -11 -5
-15 -16 -11 -8 3 -13 2 -10 -2 8 -13 -23 -52 -40 -52 -8 0 -14 -7 -14 -15 0
-8 -7 -15 -15 -15 -8 0 -19 -9 -25 -20 -6 -11 -15 -18 -21 -15 -5 4 -8 1 -7
-7 2 -7 -2 -12 -9 -11 -7 2 -10 -3 -8 -10 5 -12 -37 -37 -62 -37 -7 0 -13 -4
-13 -9 0 -5 -20 -19 -45 -31 -25 -12 -43 -25 -41 -29 3 -4 -5 -8 -16 -8 -23
-2 -40 -22 -31 -37 3 -5 2 -6 -4 -3 -6 4 -32 -14 -59 -38 -35 -33 -43 -45 -30
-45 12 0 16 -5 13 -14 -4 -10 -1 -13 9 -9 9 3 21 -3 30 -16 9 -12 19 -19 24
-16 5 3 14 -1 22 -8 7 -7 17 -14 21 -14 14 -2 21 -13 8 -13 -7 0 -9 -5 -6 -10
4 -6 10 -8 14 -5 5 2 21 -7 37 -21 16 -15 23 -23 15 -19 -9 5 -12 4 -7 -3 4
-6 13 -9 21 -6 7 3 18 -4 25 -16 6 -11 15 -18 20 -15 5 3 18 1 29 -4 10 -6 33
-12 50 -13 20 -1 31 -8 31 -18 0 -13 2 -13 9 -1 8 12 13 12 35 -3 14 -9 26
-14 26 -11 0 3 10 0 23 -7 12 -7 24 -13 27 -13 8 -1 71 -25 120 -47 25 -11 50
-22 55 -23 28 -7 75 -30 75 -37 0 -10 47 -31 74 -34 11 -1 30 -13 42 -28 13
-14 27 -26 31 -26 5 0 17 -15 28 -32 10 -18 37 -51 58 -73 21 -22 46 -50 54
-62 8 -13 21 -23 27 -23 21 0 56 -45 56 -72 0 -29 25 -58 33 -36 2 7 3 5 2 -4
-2 -10 1 -21 7 -24 10 -7 32 -55 30 -67 -1 -4 5 -7 14 -7 8 0 12 -4 9 -10 -3
-5 -2 -10 3 -10 6 0 20 -11 33 -25 13 -14 56 -47 94 -73 39 -26 76 -55 83 -64
7 -10 19 -18 26 -18 8 0 19 -7 26 -15 7 -9 15 -13 18 -10 3 3 13 -9 24 -25 10
-17 21 -29 25 -28 17 6 74 -57 70 -74 -3 -10 -1 -16 4 -12 9 5 13 -9 10 -34
-5 -33 55 29 150 156 139 186 134 179 236 337 414 645 687 1376 803 2145 41
273 44 330 44 790 0 468 -3 521 -48 815 -118 761 -388 1479 -799 2120 -50 77
-100 154 -112 170 -239 330 -391 509 -647 762 -752 745 -1703 1248 -2743 1454
-175 35 -386 65 -514 75 -50 4 -91 11 -91 15 0 5 -196 9 -435 9 -239 0 -435
-4 -435 -9z m-178 -1103 c-7 -7 -12 -8 -12 -2 0 14 12 26 19 19 2 -3 -1 -11
-7 -17z m-1652 -662 c0 -3 -4 -8 -10 -11 -5 -3 -10 -1 -10 4 0 6 5 11 10 11 6
0 10 -2 10 -4z m4250 -146 c0 -5 -2 -10 -4 -10 -3 0 -8 5 -11 10 -3 6 -1 10 4
10 6 0 11 -4 11 -10z m-1640 -1404 c0 -2 -8 -10 -17 -17 -16 -13 -17 -12 -4 4
13 16 21 21 21 13z m-4360 -1108 c0 -6 -6 -5 -15 2 -8 7 -15 14 -15 16 0 2 7
1 15 -2 8 -4 15 -11 15 -16z m5413 -3684 c-3 -9 -23 -13 -36 -6 -4 2 -5 7 -2
12 7 11 41 6 38 -6z"/>
<path d="M5773 9565 c0 -8 4 -12 9 -9 4 3 8 9 8 15 0 5 -4 9 -8 9 -5 0 -9 -7
-9 -15z"/>
<path d="M4748 9553 c7 -3 16 -2 19 1 4 3 -2 6 -13 5 -11 0 -14 -3 -6 -6z"/>
<path d="M4615 9470 c-3 -5 -1 -10 4 -10 6 0 11 5 11 10 0 6 -2 10 -4 10 -3 0
-8 -4 -11 -10z"/>
<path d="M4347 9340 c3 -11 9 -17 15 -14 5 3 4 12 -3 20 -16 19 -18 18 -12 -6z"/>
<path d="M3365 9311 c-3 -5 -1 -12 5 -16 5 -3 10 1 10 9 0 18 -6 21 -15 7z"/>
<path d="M2802 8847 c-21 -22 -20 -37 1 -37 5 0 7 6 4 13 -2 6 2 20 11 30 23
25 9 21 -16 -6z"/>
<path d="M7610 7863 c0 -12 -5 -23 -12 -25 -6 -2 -13 -11 -14 -19 -2 -7 -5
-23 -8 -34 -2 -11 -5 -22 -5 -25 -1 -3 -5 1 -10 8 -7 12 -18 -13 -25 -60 -1
-4 -9 -13 -19 -20 -10 -8 -19 -20 -21 -28 -6 -36 -18 -60 -27 -54 -6 3 -13 -2
-15 -13 -3 -12 -15 -20 -32 -21 -15 -1 -32 -9 -39 -18 -6 -8 -19 -14 -30 -12
-10 2 -17 -2 -16 -9 2 -8 -4 -10 -14 -6 -12 5 -14 3 -8 -8 8 -12 6 -12 -8 0
-9 7 -14 18 -11 23 4 6 -4 5 -16 -2 -15 -8 -25 -9 -29 -2 -4 6 -12 7 -20 3 -7
-5 -23 -7 -35 -5 -11 2 -15 2 -8 -2 20 -10 13 -23 -10 -16 -13 3 -19 1 -15 -5
15 -24 -65 -30 -106 -8 -15 8 -25 10 -23 6 3 -5 -30 -8 -74 -7 -44 0 -80 4
-80 7 0 3 -11 6 -24 5 -14 0 -25 4 -27 9 -3 18 -37 35 -55 28 -10 -4 -15 -2
-11 3 3 5 -16 9 -44 9 -30 0 -50 4 -54 12 -2 7 -20 13 -40 13 -19 0 -35 5 -35
10 0 6 -5 10 -11 10 -5 0 -7 -4 -4 -10 8 -13 -6 -13 -39 0 -14 5 -26 16 -26
25 0 16 -15 20 -24 6 -7 -11 -56 -21 -56 -11 0 4 -16 6 -35 4 -24 -2 -33 1
-29 8 5 8 1 9 -11 5 -9 -4 -24 -2 -31 4 -8 6 -23 9 -33 6 -12 -3 -22 1 -25 10
-5 12 -9 13 -20 4 -8 -7 -18 -11 -22 -9 -5 1 -28 -8 -51 -20 -24 -12 -43 -19
-43 -15 0 5 -5 1 -10 -7 -5 -8 -10 -10 -10 -5 0 6 -13 10 -30 10 -16 0 -30 -3
-30 -7 0 -4 -11 -5 -25 -2 -14 2 -25 0 -25 -5 0 -5 -8 -8 -17 -7 -19 3 -43
-15 -36 -27 2 -4 1 -7 -4 -6 -19 3 -34 -2 -29 -9 6 -10 -39 -53 -48 -46 -3 2
-1 -2 4 -8 9 -10 13 -10 20 2 5 8 10 11 10 5 0 -5 -12 -20 -27 -33 -16 -13
-21 -20 -13 -16 13 7 13 5 1 -9 -7 -9 -10 -17 -5 -17 5 0 3 -4 -5 -9 -8 -5
-15 -22 -16 -38 -2 -15 -4 -29 -5 -30 -1 -2 -3 -8 -4 -14 0 -7 -10 -15 -21
-20 -11 -4 -14 -8 -7 -8 17 -1 15 -21 -3 -21 -8 0 -15 -7 -15 -16 0 -9 5 -12
13 -8 6 4 2 -4 -9 -17 -12 -13 -25 -34 -29 -46 -3 -13 -10 -23 -14 -23 -13 0
-31 -49 -20 -55 5 -4 6 -11 3 -17 -4 -6 -10 -5 -15 3 -7 11 -9 10 -9 -3 0 -19
-33 -41 -44 -30 -4 3 -4 -1 0 -11 3 -9 10 -14 15 -11 5 3 9 2 9 -3 0 -12 -16
-35 -24 -34 -21 3 -28 -2 -12 -8 19 -7 19 -8 -4 -31 -20 -20 -21 -22 -4 -16
15 6 17 5 7 -5 -7 -7 -13 -21 -13 -31 0 -10 -7 -18 -16 -18 -8 0 -12 -4 -9
-10 3 -5 1 -10 -4 -10 -6 0 -10 -3 -10 -7 3 -20 -2 -27 -11 -13 -8 13 -11 13
-22 1 -7 -8 -8 -11 -2 -8 7 4 14 0 17 -8 6 -15 -26 -31 -52 -26 -7 1 -10 -2
-7 -7 9 -14 -41 -55 -71 -58 -74 -7 -107 -15 -115 -26 -4 -7 -8 -9 -8 -4 0 5
-6 3 -13 -3 -8 -6 -17 -7 -21 -3 -4 4 -6 0 -4 -8 2 -11 -4 -14 -22 -13 -14 1
-19 0 -12 -3 6 -3 12 -11 12 -17 0 -5 -3 -7 -7 -4 -3 4 -13 1 -21 -6 -13 -9
-14 -9 -8 1 10 16 6 16 -48 -9 -25 -11 -51 -17 -56 -14 -6 4 -10 3 -9 -2 3
-18 -1 -46 -7 -41 -3 4 -14 -1 -25 -10 -10 -9 -28 -24 -38 -34 -14 -12 -22
-13 -31 -5 -8 9 -9 7 -4 -7 6 -16 4 -18 -10 -13 -9 4 -14 3 -11 -2 3 -5 -3
-12 -12 -15 -10 -3 -6 -4 10 -2 34 4 35 -7 1 -22 -19 -9 -24 -9 -18 -1 4 8 3
9 -4 5 -7 -4 -12 -14 -12 -22 0 -8 -5 -13 -11 -12 -6 2 -14 -3 -17 -11 -3 -9
0 -11 8 -6 9 5 11 4 6 -3 -4 -7 -14 -12 -22 -12 -8 0 -14 -5 -14 -11 0 -6 -7
-8 -16 -5 -21 8 -41 -4 -24 -14 8 -5 2 -13 -19 -26 -17 -10 -31 -21 -31 -25 0
-7 -39 -22 -52 -20 -4 0 -5 -5 -2 -13 3 -8 -4 -21 -16 -29 -12 -9 -19 -20 -15
-26 3 -6 -1 -11 -9 -11 -9 0 -16 -4 -16 -10 0 -5 -7 -10 -15 -10 -8 0 -14 -6
-13 -12 2 -7 -2 -12 -9 -11 -7 2 -10 -4 -7 -12 5 -11 2 -13 -10 -9 -17 7 -22
-11 -6 -21 6 -4 8 -10 5 -15 -11 -18 -12 -129 -1 -133 7 -3 6 -14 -6 -36 -10
-17 -13 -33 -7 -36 5 -4 9 -11 9 -16 0 -6 -4 -7 -10 -4 -5 3 -10 -1 -10 -9 0
-9 5 -16 11 -16 5 0 7 -5 4 -10 -4 -6 -3 -10 2 -9 27 5 33 -1 22 -23 -9 -17
-9 -24 5 -33 9 -7 16 -17 16 -24 0 -6 5 -11 11 -11 6 0 9 -6 6 -12 -2 -7 4
-24 14 -37 11 -13 19 -30 19 -37 0 -8 5 -14 11 -14 5 0 8 -4 4 -9 -3 -6 3 -15
14 -20 10 -6 22 -22 25 -36 4 -14 11 -23 16 -20 6 3 10 -6 10 -20 0 -15 4 -24
10 -20 6 4 10 -5 8 -24 -1 -17 5 -38 14 -48 11 -12 14 -24 9 -32 -5 -8 -2 -20
8 -31 38 -40 52 -62 49 -78 -1 -9 1 -23 5 -29 5 -7 10 -22 12 -34 2 -12 12
-27 21 -34 9 -6 13 -14 8 -18 -5 -3 -9 -30 -8 -61 0 -50 -2 -56 -20 -57 -18
-1 -17 -3 6 -12 15 -6 32 -24 39 -41 7 -17 17 -34 21 -37 11 -7 -1 -41 -12
-34 -5 3 -6 -4 -3 -15 3 -11 1 -26 -5 -33 -10 -11 -19 -69 -21 -125 -1 -13 -5
-20 -11 -17 -6 3 -7 -1 -4 -9 3 -9 11 -16 18 -16 6 0 4 -5 -4 -10 -11 -7 -12
-10 -2 -10 10 0 9 -5 -4 -17 -14 -14 -14 -18 -2 -22 10 -4 14 -16 11 -36 -11
-86 5 -174 29 -159 4 3 8 0 8 -6 0 -6 4 -9 9 -5 5 3 12 1 16 -5 4 -6 -6 -11
-22 -11 -23 -2 -24 -2 -5 -6 12 -2 22 -9 22 -14 0 -6 4 -7 10 -4 6 4 7 -1 3
-11 -5 -13 -3 -15 7 -9 10 6 12 4 7 -8 -3 -10 -2 -17 4 -17 6 0 8 -10 5 -22
-3 -13 -3 -17 0 -10 7 16 34 -3 34 -25 0 -8 5 -11 10 -8 6 4 10 -6 10 -24 0
-16 6 -36 13 -43 9 -8 11 -21 6 -33 -11 -27 -11 -37 0 -31 5 3 14 -1 21 -9 7
-8 9 -15 5 -15 -4 0 -2 -7 5 -15 7 -8 10 -22 6 -30 -3 -8 -1 -15 5 -15 5 0 7
-11 3 -26 -5 -19 -4 -25 5 -20 8 5 8 0 1 -19 -7 -17 -7 -24 0 -20 6 3 10 -1
10 -10 0 -9 -4 -13 -10 -10 -6 3 -7 -1 -4 -10 4 -8 1 -22 -6 -30 -11 -13 -10
-14 2 -10 9 4 18 -1 22 -10 3 -9 2 -14 -2 -11 -5 3 -9 -1 -9 -9 0 -8 5 -13 10
-12 5 1 13 -9 18 -22 9 -22 8 -23 -8 -10 -17 13 -17 13 -1 -6 11 -13 14 -25 8
-36 -13 -23 -5 -54 14 -51 14 3 21 -8 17 -30 0 -4 10 -10 23 -14 14 -3 27 -12
30 -20 4 -10 2 -12 -6 -8 -7 5 -8 3 -4 -5 5 -7 15 -10 23 -7 8 3 11 1 8 -4 -3
-6 0 -10 7 -10 11 0 10 -2 0 -9 -14 -8 -9 -13 23 -21 19 -5 52 -74 42 -88 -7
-9 -6 -11 4 -8 18 7 63 -30 54 -44 -3 -5 -1 -10 5 -10 6 0 10 -8 8 -17 -4 -21
54 -84 64 -69 5 7 13 4 22 -9 9 -11 16 -16 16 -12 0 4 9 3 19 -3 14 -7 21 -6
24 3 4 9 6 9 6 -1 1 -7 6 -10 13 -6 6 4 16 1 22 -7 17 -21 49 -37 92 -45 22
-4 51 -15 66 -25 14 -11 31 -19 38 -19 6 0 9 -4 6 -8 -3 -5 1 -9 9 -9 8 0 12
4 9 9 -7 11 3 10 27 -3 12 -6 18 -17 15 -25 -3 -8 1 -14 9 -14 17 0 20 -16 5
-23 -6 -3 -5 -4 2 -3 16 3 48 -25 48 -41 0 -7 4 -12 9 -10 13 3 80 -71 72 -80
-3 -4 2 -1 12 7 16 12 20 12 28 -1 5 -8 9 -22 9 -31 0 -9 5 -20 12 -24 7 -5 8
-3 3 7 -7 11 -6 12 7 2 8 -7 18 -10 21 -6 4 3 7 -1 7 -10 0 -10 8 -17 21 -17
12 0 17 -4 13 -11 -4 -8 0 -8 15 0 17 10 21 9 21 -4 0 -9 4 -14 9 -11 4 3 13
-6 19 -19 7 -14 18 -25 27 -25 24 0 28 -1 68 -21 21 -11 42 -17 47 -14 6 3 10
1 10 -5 0 -6 11 -8 25 -6 16 3 29 -1 37 -13 7 -10 27 -25 43 -33 31 -16 69
-26 155 -44 14 -3 45 -15 70 -26 25 -12 48 -22 51 -22 4 -1 15 -10 25 -21 11
-12 16 -16 11 -9 -5 8 1 12 18 12 14 0 25 -3 25 -7 0 -4 9 -7 19 -7 11 0 17 4
15 8 -3 4 0 8 5 8 6 0 11 -7 11 -16 0 -14 3 -14 15 -4 12 10 15 10 15 0 0 -9
3 -10 14 -1 11 9 15 8 20 -5 6 -15 9 -15 27 4 22 24 34 27 44 12 3 -5 0 -7 -8
-4 -8 3 -17 -1 -20 -9 -7 -19 24 -17 39 2 8 10 21 12 43 8 18 -4 30 -3 27 1
-3 5 5 8 17 7 12 -1 27 1 32 6 13 10 28 9 41 -2 8 -6 14 -2 19 13 4 13 8 25 9
28 5 17 74 76 84 72 7 -2 12 1 12 8 0 6 5 8 10 5 6 -3 10 -1 10 5 0 8 9 10 25
6 14 -4 25 -2 25 4 0 5 11 10 25 10 16 0 25 6 25 16 0 8 5 12 10 9 6 -3 10 -1
10 4 0 6 6 11 13 11 20 0 73 28 87 45 7 8 16 13 20 10 8 -5 40 54 40 75 0 6 5
8 10 5 6 -3 10 -1 10 5 0 6 5 8 12 4 7 -4 8 -3 4 5 -8 12 11 34 34 39 21 5 50
33 50 48 0 7 10 19 23 25 12 6 39 29 60 50 21 22 41 39 44 39 3 0 22 12 42 27
20 16 39 27 43 25 5 -1 7 3 5 9 -1 6 8 13 21 15 13 2 36 11 53 19 16 9 29 12
29 8 0 -5 4 -3 8 4 4 6 14 13 22 15 22 5 39 22 32 33 -3 6 3 3 13 -5 10 -8 16
-10 12 -4 -4 7 0 17 8 24 8 7 15 9 15 4 0 -5 22 15 49 44 26 28 54 52 61 52 7
0 10 3 6 7 -10 10 -36 13 -36 3 0 -4 -21 -6 -47 -5 -27 1 -53 -2 -59 -6 -20
-16 -59 -12 -114 13 -39 18 -71 25 -107 24 -29 -1 -53 2 -53 7 0 4 -4 5 -10 2
-5 -3 -10 -2 -10 4 0 6 -6 8 -14 5 -8 -3 -25 0 -38 7 -13 7 -32 14 -43 16 -51
7 -67 14 -62 28 4 9 -13 21 -51 36 -31 13 -59 26 -62 30 -3 4 -17 11 -33 14
-15 4 -25 10 -23 14 2 3 -14 15 -36 26 -22 11 -43 25 -45 32 -3 7 -10 13 -17
13 -17 1 -87 56 -79 64 3 3 1 6 -6 6 -7 0 -9 5 -5 12 4 7 3 8 -4 4 -6 -3 -16
3 -22 14 -6 11 -7 20 -3 20 4 0 1 5 -7 10 -13 9 -13 10 0 11 8 1 19 1 23 0 5
-1 5 4 1 11 -15 24 -12 34 12 34 17 0 23 -4 19 -14 -3 -8 0 -10 8 -5 21 13 37
12 37 -3 0 -9 5 -12 10 -9 6 3 10 2 10 -4 0 -16 70 -82 80 -76 6 4 13 -1 16
-9 3 -9 10 -13 15 -10 5 3 9 2 8 -3 -3 -19 2 -34 10 -29 5 3 14 -1 21 -10 7
-8 19 -13 26 -10 6 2 20 -2 31 -9 22 -18 37 -19 27 -3 -8 12 55 -33 91 -65 10
-10 25 -15 32 -13 7 3 12 0 10 -6 -1 -6 4 -13 12 -16 9 -3 11 0 6 8 -6 9 -4
11 6 5 13 -9 31 -13 74 -18 11 -1 26 -6 33 -10 6 -5 17 -5 22 -2 6 3 10 2 10
-3 0 -5 10 -9 23 -8 13 1 21 -4 19 -12 -1 -8 2 -11 7 -8 5 3 28 2 52 -2 24 -4
64 -4 89 0 25 5 56 10 70 12 14 2 26 5 28 6 1 1 5 3 10 5 49 14 89 36 122 68
16 16 30 26 30 21 0 -4 18 17 40 47 22 30 45 61 52 69 7 8 14 28 16 45 2 16 8
33 13 36 6 3 11 22 12 41 1 20 5 34 10 31 4 -2 7 7 7 21 0 14 4 26 9 26 5 0 8
12 5 26 -3 19 -1 24 8 18 10 -6 11 -5 1 7 -10 12 -9 20 1 40 7 13 11 30 9 36
-2 6 0 14 6 17 6 4 8 13 4 21 -3 8 -1 15 4 15 5 0 9 35 9 78 -1 82 -19 122
-57 122 -10 0 -24 7 -33 15 -8 8 -19 15 -25 15 -6 0 -11 5 -11 11 0 5 -5 7
-11 4 -6 -4 -17 1 -25 11 -9 11 -13 13 -9 4 4 -10 2 -9 -8 2 -8 10 -18 18 -23
18 -17 0 -65 63 -60 77 3 8 2 12 -3 8 -5 -3 -11 -2 -14 2 -2 5 -2 2 0 -6 2 -8
-11 0 -28 17 -17 17 -28 35 -25 41 4 5 -1 14 -10 19 -15 8 -15 10 1 16 18 7
19 5 -47 77 -23 24 -9 64 26 81 14 6 23 16 19 21 -4 7 0 8 11 4 14 -5 17 -3
12 8 -3 8 -1 15 5 15 5 0 14 10 20 23 9 22 9 22 5 0 -3 -15 0 -20 10 -16 8 3
12 9 9 13 -3 4 9 13 25 19 17 5 30 15 30 22 0 8 4 8 13 1 8 -7 18 -7 27 -2 8
6 11 10 5 10 -5 0 -3 4 5 10 8 5 32 7 55 4 29 -4 36 -2 25 5 -16 11 -15 12 42
16 63 4 88 14 82 30 -4 8 -10 13 -14 10 -9 -5 -24 39 -23 67 0 10 -4 15 -9 12
-6 -4 -9 6 -7 22 2 16 -3 39 -9 51 -7 13 -10 34 -8 48 3 14 1 23 -3 21 -4 -3
-7 15 -6 39 1 25 -2 45 -7 45 -6 0 -8 11 -6 25 3 14 1 25 -6 25 -6 0 -5 4 3 9
7 5 9 11 4 14 -5 3 -8 20 -7 36 1 17 -2 31 -6 31 -5 0 -5 13 0 30 5 17 5 32 0
35 -5 3 -7 12 -4 20 3 8 0 31 -7 52 -7 21 -12 44 -10 51 1 8 -6 21 -16 29 -10
8 -11 11 -3 7 12 -6 13 -5 3 7 -7 9 -14 24 -17 35 -17 83 -17 83 -52 82 -18
-1 -31 -5 -28 -10 3 -4 -2 -8 -11 -8 -10 0 -14 5 -9 13 3 6 -6 -1 -20 -18 -14
-16 -25 -24 -24 -16 2 7 -7 15 -20 17 -14 2 -21 0 -17 -6 4 -6 -11 -8 -40 -5
-25 2 -43 1 -40 -4 2 -5 -2 -11 -10 -14 -9 -4 -12 -1 -9 7 4 10 -2 12 -20 9
-16 -3 -26 -1 -26 6 0 6 -3 10 -7 10 -40 -6 -69 5 -99 38 -19 20 -34 45 -34
55 0 10 -8 31 -17 46 -14 22 -15 25 -2 17 8 -5 5 -1 -8 10 -15 14 -19 25 -14
34 5 8 7 20 4 27 -5 12 42 32 52 22 5 -4 13 -43 14 -66 1 -7 5 -10 11 -7 5 3
16 -10 24 -29 8 -19 23 -39 35 -45 29 -16 141 -30 148 -18 3 5 18 7 33 3 19
-3 33 0 41 10 6 8 17 13 23 11 17 -6 46 12 46 28 0 8 4 15 9 15 5 0 6 12 2 28
-5 17 -15 28 -29 30 -12 2 -20 8 -17 13 4 5 -3 5 -17 0 -16 -6 -32 -3 -56 11
-18 10 -31 14 -27 8 3 -6 0 -7 -9 -4 -9 3 -16 10 -16 14 0 5 -10 7 -22 5 -12
-3 -32 2 -45 10 -12 8 -30 15 -39 15 -9 0 -22 6 -28 14 -9 13 -16 12 -48 -3
-20 -11 -39 -17 -41 -15 -2 3 -10 -2 -17 -10 -11 -14 -14 -14 -27 -1 -8 8 -23
15 -34 15 -11 0 -22 6 -25 14 -9 24 15 56 42 56 14 0 23 4 19 10 -4 6 7 13 24
16 17 4 28 10 25 15 -3 5 1 9 10 9 8 0 17 -6 19 -12 3 -8 6 -6 6 5 1 19 16 23
27 6 3 -6 15 -9 25 -6 10 3 22 1 25 -4 3 -5 10 -7 15 -3 5 3 16 1 23 -5 9 -7
22 -5 48 9 20 10 55 21 79 24 24 2 46 5 48 5 2 1 -3 9 -11 19 -9 9 -19 39 -23
66 -4 27 -14 60 -22 73 -8 13 -12 23 -8 23 3 0 0 7 -9 15 -8 8 -20 40 -27 70
-7 30 -18 60 -26 66 -7 6 -13 17 -13 24 0 8 -6 16 -12 18 -9 4 -9 6 2 6 10 1
8 5 -7 16 -19 13 -40 67 -35 88 1 4 -3 7 -9 7 -7 0 -9 9 -6 21 4 16 -9 35 -53
81 -32 33 -60 59 -62 58 -7 -3 -44 14 -60 28 -11 9 -44 16 -90 18 -62 3 -75 6
-90 26 -17 22 -16 23 3 32 13 6 31 6 50 -1 20 -8 27 -8 23 -1 -5 7 0 9 13 6
11 -3 28 1 38 8 20 15 39 19 32 7 -3 -5 12 -9 32 -9 44 -2 50 16 19 55 -10 13
-18 30 -18 37 0 8 -4 14 -9 14 -9 0 -27 57 -23 72 1 4 -7 10 -18 13 -16 5 -17
10 -10 31 7 17 7 23 0 19 -27 -17 -75 88 -49 107 11 8 10 9 -3 4 -12 -3 -18 0
-18 9 0 8 -5 15 -12 15 -6 0 -9 3 -5 6 8 8 -21 64 -33 64 -10 0 -25 39 -22 57
1 6 -8 19 -21 30 -13 10 -26 27 -30 37 -7 17 -5 17 10 6 10 -7 3 1 -15 18 -20
19 -31 36 -26 43 4 7 3 9 -4 6 -19 -13 -40 3 -34 25 4 17 2 20 -11 15 -13 -5
-17 0 -17 21 0 15 -9 41 -20 57 -18 27 -20 28 -20 8z m-1860 -718 c0 -8 -7
-15 -16 -15 -14 0 -14 3 -4 15 7 8 14 15 16 15 2 0 4 -7 4 -15z m736 -362 c-3
-3 1 -12 9 -19 15 -15 10 -48 -6 -38 -5 3 -9 -1 -9 -8 0 -10 -2 -10 -9 0 -6
10 -10 8 -14 -10 -7 -25 -29 -30 -55 -14 -17 10 -15 0 4 -18 14 -15 14 -16 -3
-17 -10 -1 -23 -1 -29 0 -7 1 -14 -5 -18 -14 -3 -8 -12 -15 -20 -15 -8 0 -18
-4 -21 -10 -3 -6 1 -7 12 -4 15 4 14 3 -2 -7 -11 -7 -21 -12 -23 -11 -6 5 -32
-27 -32 -40 0 -8 -9 -20 -20 -28 -11 -8 -20 -21 -20 -30 0 -13 -2 -13 -9 -1
-7 11 -11 5 -16 -22 -4 -20 -11 -37 -16 -37 -5 0 -9 -9 -9 -21 0 -15 -4 -19
-16 -15 -14 5 -15 4 -4 -9 9 -11 9 -15 1 -15 -7 0 -9 -5 -5 -12 4 -7 3 -8 -5
-4 -6 4 -14 0 -17 -11 -3 -10 -11 -29 -17 -43 -6 -14 -9 -31 -8 -38 1 -7 -5
-15 -13 -18 -8 -3 -13 -11 -10 -19 3 -7 -1 -19 -8 -26 -7 -8 -15 -23 -16 -34
-2 -11 -8 -24 -14 -30 -8 -7 -8 -6 -3 4 5 9 4 12 -3 7 -6 -3 -9 -15 -7 -26 4
-19 -8 -24 -52 -23 -7 1 -10 -3 -7 -8 3 -5 -2 -9 -10 -9 -19 0 -20 5 -6 31 7
13 7 19 0 19 -5 0 -10 5 -10 11 0 6 6 9 14 6 11 -4 13 1 10 20 -6 32 14 85 29
76 6 -4 7 -1 1 8 -12 20 -14 38 -3 45 5 3 9 18 9 34 0 28 20 55 20 28 0 -8 5
-6 11 5 5 9 7 22 4 27 -3 6 1 7 9 4 9 -3 16 -1 16 5 0 6 8 8 18 4 15 -6 15 -5
3 10 -7 9 -10 17 -6 17 4 0 3 6 -3 13 -8 10 -6 16 9 25 11 7 17 17 14 22 -3 5
4 11 15 15 11 3 20 11 20 16 0 6 4 8 9 5 12 -8 21 18 11 34 -6 10 -9 9 -13 -1
-3 -9 -6 -9 -6 -2 -1 6 6 18 14 27 8 8 15 20 15 26 0 8 8 10 21 7 12 -3 18 -3
15 0 -3 4 3 13 14 20 11 8 18 19 15 24 -4 5 0 9 7 10 36 2 53 10 79 39 16 17
34 28 39 25 6 -4 9 -1 8 7 -2 8 5 12 20 11 14 -2 21 1 17 7 -4 7 3 8 21 4 21
-6 25 -4 19 7 -8 12 -6 12 8 0 15 -12 17 -12 11 3 -5 12 -2 15 10 10 9 -4 15
-9 12 -11z m734 -772 c9 -9 22 -17 30 -19 8 -2 18 -8 21 -13 3 -6 10 -9 15 -8
22 4 34 -2 34 -17 0 -8 4 -13 9 -9 9 5 27 -1 86 -26 11 -5 36 -10 55 -12 20
-2 41 -7 48 -11 7 -4 17 -4 22 -1 6 3 10 1 10 -5 0 -6 5 -8 10 -5 19 11 23
-25 5 -39 -10 -7 -15 -19 -12 -27 4 -10 6 -9 6 4 1 23 21 22 21 -1 0 -24 -34
-39 -87 -38 -24 1 -43 -3 -43 -7 0 -4 -9 -3 -20 3 -11 6 -20 8 -20 5 0 -3 -8
-1 -19 4 -10 6 -33 12 -49 13 -23 2 -28 5 -21 14 8 9 5 11 -10 7 -13 -3 -21
-1 -21 6 0 7 -3 10 -8 7 -4 -2 -25 4 -47 14 -22 11 -47 19 -55 20 -9 0 -21 5
-27 11 -28 28 -163 10 -163 -21 0 -6 -14 -10 -32 -10 -17 0 -39 -6 -47 -14 -9
-8 -23 -16 -31 -18 -8 -2 -17 -5 -20 -8 -10 -10 -114 -55 -122 -52 -4 1 -8 -3
-8 -9 0 -5 -4 -8 -9 -4 -5 3 -13 0 -16 -6 -4 -5 -14 -8 -22 -5 -9 4 -11 2 -7
-6 5 -8 1 -9 -12 -4 -10 4 -23 8 -28 9 -12 2 -23 -50 -18 -81 4 -18 7 -20 18
-11 11 9 14 7 14 -9 0 -14 8 -21 28 -24 15 -3 36 -9 46 -13 15 -6 17 -5 11 5
-5 7 4 5 18 -6 15 -10 27 -21 27 -24 0 -3 28 -5 62 -5 56 0 64 3 75 25 7 14
13 20 13 14 0 -6 7 -11 15 -11 8 0 12 4 9 9 -8 12 22 38 43 38 15 0 16 -2 3
-10 -10 -7 -11 -10 -2 -10 7 0 16 8 19 18 10 25 31 44 43 37 5 -3 10 -1 10 6
0 8 4 8 16 -1 12 -11 15 -11 12 0 -2 7 3 15 10 17 12 5 17 -20 13 -62 -2 -20
-2 -20 13 0 8 11 17 17 21 13 4 -4 -2 -17 -14 -29 -11 -12 -18 -27 -14 -32 3
-6 1 -7 -6 -3 -6 4 -8 12 -5 18 4 7 2 8 -4 4 -7 -4 -12 -14 -12 -22 0 -8 -5
-14 -11 -14 -5 0 -7 -4 -4 -10 3 -5 -1 -10 -10 -10 -10 0 -13 5 -9 12 4 7 3 8
-4 4 -7 -4 -12 -14 -12 -22 0 -13 -12 -19 -33 -15 -5 1 -6 -2 -4 -6 3 -5 -1
-14 -9 -20 -9 -9 -15 -10 -20 -2 -4 7 -15 2 -29 -15 -28 -32 -64 -46 -92 -35
-15 5 -22 5 -20 -2 1 -6 -13 -13 -30 -15 -18 -2 -33 1 -33 6 0 6 -11 10 -25
10 -13 0 -33 9 -43 20 -10 11 -29 21 -43 22 -13 2 -28 12 -32 23 -8 20 -9 20
-23 1 -8 -11 -14 -16 -14 -10 0 5 -13 18 -30 29 -28 18 -54 55 -29 39 7 -4 10
-1 7 7 -3 8 -12 12 -19 11 -8 -2 -11 0 -7 4 4 4 3 13 -3 20 -7 9 -7 19 0 33
15 28 14 38 -2 16 -13 -17 -14 -17 -20 5 -3 12 -10 19 -16 15 -6 -3 -11 -1
-11 6 0 9 -3 9 -14 0 -10 -8 -16 -9 -21 -1 -11 18 -35 11 -35 -10 0 -11 -5
-20 -11 -20 -5 0 -7 6 -3 13 6 9 4 9 -8 -1 -11 -9 -18 -10 -23 -2 -3 5 -11 10
-16 10 -6 0 -7 -5 -3 -11 4 -8 0 -9 -15 -4 -13 4 -21 2 -21 -6 0 -9 -3 -9 -15
1 -8 6 -19 9 -25 5 -5 -3 -16 -3 -22 2 -7 4 -30 8 -50 9 -20 0 -49 9 -64 19
l-27 18 24 14 24 14 -25 -6 c-25 -5 -25 -5 -2 6 12 7 22 15 22 19 0 4 29 6 65
5 46 -1 66 3 70 13 3 9 10 10 20 4 26 -14 72 -2 84 21 l11 22 -5 -22 c-3 -12
0 -25 6 -29 8 -4 9 -3 5 4 -4 7 -1 12 8 12 9 0 16 5 16 11 0 5 4 8 9 5 5 -3
12 1 15 10 4 10 12 14 22 10 21 -8 56 3 49 15 -4 5 5 9 18 9 14 0 28 7 31 16
3 8 10 12 16 9 5 -3 10 0 11 7 0 10 2 10 6 -1 4 -10 7 -11 13 -1 4 7 21 13 38
14 17 0 28 4 26 7 -2 4 3 10 12 13 10 4 13 2 9 -7 -4 -6 0 -4 8 5 8 10 18 14
22 10 5 -4 6 -2 2 3 -10 19 10 38 41 39 17 0 28 5 25 9 -3 5 1 8 8 6 27 -3 40
1 33 12 -4 8 -1 8 13 1 15 -8 27 -6 51 8 22 13 32 16 32 7 0 -7 3 -8 8 -2 9
13 24 16 106 21 38 2 70 5 73 8 10 10 89 -7 103 -23z m-2250 -861 c0 -5 -2
-10 -4 -10 -3 0 -8 5 -11 10 -3 6 -1 10 4 10 6 0 11 -4 11 -10z"/>
<path d="M6675 5590 c-3 -5 -2 -10 4 -10 5 0 13 5 16 10 3 6 2 10 -4 10 -5 0
-13 -4 -16 -10z"/>
<path d="M6900 5496 c0 -2 8 -10 18 -17 15 -13 16 -12 3 4 -13 16 -21 21 -21
13z"/>
<path d="M6510 7710 c0 -5 5 -10 11 -10 5 0 7 5 4 10 -3 6 -8 10 -11 10 -2 0
-4 -4 -4 -10z"/>
<path d="M7246 7627 c3 -10 9 -15 12 -12 3 3 0 11 -7 18 -10 9 -11 8 -5 -6z"/>
<path d="M7346 7582 c-3 -5 1 -9 9 -9 8 0 12 4 9 9 -3 4 -7 8 -9 8 -2 0 -6 -4
-9 -8z"/>
<path d="M5810 7370 c0 -5 5 -10 11 -10 5 0 7 5 4 10 -3 6 -8 10 -11 10 -2 0
-4 -4 -4 -10z"/>
<path d="M8198 7109 c-15 -8 -15 -12 -2 -39 9 -16 13 -34 9 -40 -3 -5 -1 -10
5 -10 6 0 9 -4 6 -8 -3 -5 6 -16 20 -26 13 -11 24 -25 24 -32 0 -16 42 -105
72 -153 12 -19 17 -31 10 -27 -7 4 -10 2 -7 -6 3 -7 19 -21 36 -30 17 -10 27
-22 24 -28 -3 -5 1 -10 9 -10 9 0 16 -5 16 -11 0 -8 4 -8 13 -1 8 7 18 7 27 2
8 -5 19 -6 25 -2 5 3 17 7 25 9 8 1 16 6 18 12 2 5 10 7 18 4 8 -3 14 1 14 8
0 11 2 11 9 0 8 -12 12 -12 25 -2 9 8 38 15 65 17 27 2 68 14 92 27 85 46 124
69 140 83 8 8 23 14 32 14 9 0 17 5 17 11 0 6 9 9 20 6 11 -3 18 -2 15 3 -2 4
8 10 23 13 15 3 37 15 49 26 15 14 23 17 26 8 3 -7 6 -2 6 11 1 13 5 20 11 17
6 -3 10 1 10 10 0 9 5 13 10 10 6 -4 8 -11 5 -16 -4 -5 -1 -9 4 -9 6 0 11 7
11 15 0 8 6 15 14 15 8 0 27 5 43 11 25 9 26 12 11 23 -10 7 -33 12 -53 11
-19 0 -35 3 -35 7 0 4 -7 8 -15 8 -8 0 -15 3 -15 8 0 4 -15 17 -33 29 -36 24
-110 36 -127 19 -7 -7 -13 -7 -18 -1 -7 10 -114 16 -107 6 2 -3 -18 -5 -43 -5
-26 1 -53 -3 -61 -10 -12 -9 -13 -8 -6 4 7 12 6 13 -6 4 -21 -15 -93 -19 -84
-4 6 9 2 9 -13 1 -27 -14 -45 -14 -36 1 5 8 0 9 -14 6 -13 -4 -22 -1 -22 5 0
7 -5 5 -10 -3 -5 -8 -10 -10 -10 -5 0 6 -4 4 -8 -3 -5 -7 -30 -15 -57 -19 -27
-3 -45 -2 -42 4 3 5 -2 10 -11 11 -9 1 -41 4 -70 7 -29 2 -61 9 -70 14 -11 6
-24 6 -34 0z"/>
<path d="M3023 6483 c-13 -2 -23 -11 -23 -18 0 -8 -6 -12 -13 -9 -7 2 -26 -5
-42 -17 -22 -18 -39 -22 -77 -20 -27 1 -55 -3 -63 -9 -8 -7 -21 -10 -29 -7 -9
4 -12 0 -9 -13 3 -13 0 -18 -11 -16 -19 3 -34 16 -18 16 7 0 12 5 12 12 0 6
-7 5 -18 -5 -15 -13 -21 -14 -31 -4 -10 9 -11 9 -6 -4 4 -10 0 -19 -9 -22 -9
-4 -16 -2 -16 2 0 5 -16 5 -35 1 -27 -6 -35 -5 -35 6 0 8 -4 14 -10 14 -5 0
-6 -8 -3 -17 6 -16 5 -16 -10 -4 -14 11 -24 11 -66 -3 -56 -18 -73 -20 -51 -6
9 6 10 10 3 10 -6 0 -15 -5 -18 -11 -4 -6 -13 -8 -21 -5 -7 3 -16 0 -20 -6 -5
-7 -2 -8 6 -3 8 5 11 4 6 -3 -3 -6 -27 -10 -51 -9 -25 1 -45 -2 -45 -6 0 -5
-6 -5 -12 -1 -10 6 -10 4 0 -8 11 -13 9 -15 -15 -15 -16 0 -22 2 -15 4 6 3 10
9 6 14 -3 5 -11 6 -17 2 -18 -11 -36 -12 -43 -2 -3 5 -10 6 -16 3 -17 -11 -98
-10 -98 1 0 5 -4 5 -8 -2 -4 -7 -27 -14 -50 -15 -23 -2 -44 -9 -47 -16 -3 -8
-11 -10 -22 -5 -10 5 -29 7 -43 6 -14 -2 -41 -5 -60 -7 -19 -3 -64 -6 -100 -7
-36 -1 -68 -7 -72 -13 -6 -8 -11 -7 -17 3 -7 10 -16 11 -37 4 -16 -6 -39 -8
-52 -7 -14 3 -21 0 -17 -6 3 -5 0 -7 -8 -4 -8 3 -18 1 -21 -5 -4 -6 -14 -7
-23 -4 -10 4 -14 2 -10 -4 4 -6 -4 -13 -18 -15 -16 -4 -22 -1 -17 6 15 25 9
37 -9 17 l-20 -21 -42 22 c-46 24 -70 31 -62 18 3 -4 -2 -14 -11 -21 -14 -11
-18 -11 -29 4 -14 20 -29 23 -20 5 4 -7 0 -5 -8 5 -12 15 -15 15 -20 3 -7 -17
-97 -21 -97 -4 0 5 -4 6 -10 3 -5 -3 -10 -1 -10 5 0 7 -7 5 -16 -4 -19 -19
-26 -20 -43 -3 -11 10 -13 10 -7 0 5 -9 0 -13 -12 -13 -10 0 -22 -3 -25 -7 -4
-3 -19 -8 -34 -9 -15 -2 -29 -8 -31 -14 -3 -8 -8 -7 -18 1 -11 9 -14 8 -14 -5
0 -10 -4 -14 -10 -11 -5 3 -10 -1 -10 -9 0 -9 -8 -16 -17 -16 -14 0 -15 -2 -5
-9 8 -4 14 -12 15 -17 1 -5 6 -8 11 -6 5 2 4 -4 -3 -12 -10 -12 -9 -14 8 -9
12 3 21 1 21 -5 0 -6 10 -14 21 -17 16 -5 18 -9 9 -15 -9 -6 -6 -11 11 -21 13
-7 30 -12 37 -11 7 2 24 -6 38 -17 15 -12 30 -18 35 -15 5 2 14 -4 20 -14 8
-13 20 -17 36 -14 15 3 29 -1 34 -9 7 -12 9 -11 9 1 1 12 3 11 14 -3 8 -10 23
-19 35 -20 12 -1 21 -5 21 -9 0 -4 6 -5 14 -2 8 3 17 1 21 -5 3 -6 11 -11 17
-11 5 0 0 9 -13 20 -21 18 -17 17 28 -4 37 -19 53 -22 56 -13 3 7 6 5 6 -5 1
-9 -5 -19 -11 -22 -7 -2 -2 -3 12 -2 14 2 37 0 51 -4 17 -5 31 -4 39 3 8 9 10
8 5 -4 -4 -10 -1 -20 6 -25 7 -4 10 -3 6 3 -4 6 0 13 8 17 10 4 15 -1 15 -14
0 -11 4 -20 10 -20 5 0 7 8 3 18 -3 9 -3 14 2 10 4 -4 14 -3 22 4 11 8 12 7 7
-6 -3 -9 -1 -16 5 -16 6 0 11 5 11 10 0 6 7 10 16 10 14 0 14 -3 4 -15 -7 -9
-10 -18 -6 -22 3 -3 6 -1 6 5 0 7 7 12 16 12 8 0 13 4 10 9 -7 11 38 30 82 35
25 3 32 0 28 -10 -7 -18 -1 -18 29 2 15 10 25 12 25 5 0 -6 7 -11 15 -11 8 0
15 7 15 15 0 18 23 19 53 4 18 -9 20 -9 10 2 -21 21 -15 29 20 24 25 -4 28 -3
12 4 -16 8 -17 10 -3 10 9 1 19 7 21 14 4 8 8 8 14 2 4 -5 16 -16 25 -23 14
-11 16 -11 11 7 -3 13 -1 21 6 21 7 0 9 -4 6 -10 -3 -5 0 -8 7 -5 38 12 78 13
78 0 0 -8 4 -16 9 -19 5 -4 7 3 4 13 -4 16 0 19 23 16 20 -2 34 5 52 27 13 16
27 27 29 24 3 -3 27 6 54 19 27 14 53 25 59 25 6 0 30 13 53 28 38 26 69 41
82 42 3 0 19 7 36 16 17 8 40 17 52 20 11 2 23 8 27 13 3 6 35 25 70 43 36 19
107 58 159 88 52 30 99 55 103 55 5 0 12 5 16 11 4 6 22 17 40 25 18 8 35 22
38 32 3 9 9 15 14 12 4 -3 13 2 20 10 7 8 11 14 9 14 -2 -1 -14 -4 -26 -6z
m-1639 -234 c-3 -5 -10 -7 -15 -3 -5 3 -7 10 -3 15 3 5 10 7 15 3 5 -3 7 -10
3 -15z m-224 -229 c0 -5 -4 -10 -10 -10 -5 0 -10 5 -10 10 0 6 5 10 10 10 6 0
10 -4 10 -10z"/>
<path d="M4543 6235 c0 -8 4 -15 9 -15 4 0 8 7 8 15 0 8 -4 15 -8 15 -5 0 -9
-7 -9 -15z"/>
<path d="M7947 6223 c-4 -3 -7 -11 -7 -17 0 -6 5 -5 12 2 6 6 9 14 7 17 -3 3
-9 2 -12 -2z"/>
<path d="M7990 6190 c18 -12 30 -13 30 -2 0 4 -10 9 -22 9 -18 2 -20 0 -8 -7z"/>
<path d="M8340 5923 c8 -3 19 -11 23 -17 6 -7 7 -6 4 4 -2 8 -12 16 -23 17
-13 2 -15 1 -4 -4z"/>
<path d="M1698 5903 c7 -3 16 -2 19 1 4 3 -2 6 -13 5 -11 0 -14 -3 -6 -6z"/>
<path d="M1211 5891 c-8 -5 -9 -11 -3 -15 5 -3 12 1 16 9 6 17 6 18 -13 6z"/>
<path d="M4553 5825 c0 -11 4 -12 14 -4 7 6 13 13 13 15 0 2 -6 4 -13 4 -8 0
-14 -7 -14 -15z"/>
<path d="M4760 5439 c0 -5 5 -7 10 -4 6 3 10 8 10 11 0 2 -4 4 -10 4 -5 0 -10
-5 -10 -11z"/>
<path d="M4830 5171 c0 -17 18 -21 24 -6 3 9 0 15 -9 15 -8 0 -15 -4 -15 -9z"/>
<path d="M8655 4990 c-10 -11 -21 -17 -26 -14 -5 3 -22 7 -38 9 -17 2 -40 7
-52 10 -15 5 -19 4 -14 -5 6 -9 3 -9 -13 -1 -16 8 -21 7 -26 -5 -3 -8 -10 -12
-16 -9 -5 3 -10 1 -10 -5 0 -7 -6 -10 -14 -7 -8 3 -17 -2 -21 -11 -4 -10 -9
-12 -13 -6 -7 10 -41 -17 -43 -33 0 -5 -7 -7 -15 -5 -8 2 -14 -4 -14 -13 0 -8
5 -15 11 -15 6 0 3 -7 -5 -16 -17 -16 -21 -29 -8 -20 4 2 14 0 22 -5 13 -8 13
-10 0 -19 -13 -8 -13 -10 1 -10 9 0 20 -8 23 -17 17 -47 38 -74 53 -68 22 8
64 -22 61 -43 -2 -9 2 -17 7 -17 6 0 20 -6 33 -14 13 -7 28 -10 35 -8 7 2 19
-2 27 -9 19 -16 60 -7 60 12 0 8 5 14 10 14 6 0 10 5 10 10 0 6 9 23 20 38 11
15 21 49 24 75 2 27 8 53 13 58 9 9 -1 111 -13 131 -3 4 -20 8 -37 8 -30 1
-31 1 -13 15 11 8 15 15 9 15 -5 0 -18 -9 -28 -20z"/>
<path d="M4925 4940 c-3 -5 -1 -10 4 -10 6 0 11 5 11 10 0 6 -2 10 -4 10 -3 0
-8 -4 -11 -10z"/>
<path d="M4835 4710 c-3 -5 -1 -10 4 -10 6 0 11 5 11 10 0 6 -2 10 -4 10 -3 0
-8 -4 -11 -10z"/>
<path d="M4930 4600 c0 -5 5 -10 11 -10 5 0 7 5 4 10 -3 6 -8 10 -11 10 -2 0
-4 -4 -4 -10z"/>
<path d="M7551 3841 c-8 -5 -9 -11 -3 -15 5 -3 12 1 16 9 6 17 6 18 -13 6z"/>
<path d="M5955 3200 c-3 -6 1 -7 9 -4 18 7 21 14 7 14 -6 0 -13 -4 -16 -10z"/>
<path d="M7916 3175 c4 -8 8 -15 10 -15 2 0 4 7 4 15 0 8 -4 15 -10 15 -5 0
-7 -7 -4 -15z"/>
<path d="M8260 2937 c0 -16 56 -34 67 -23 4 3 -3 6 -15 6 -11 0 -28 7 -36 16
-14 13 -16 13 -16 1z"/>
<path d="M8725 2561 c-3 -5 -2 -12 3 -15 5 -3 9 1 9 9 0 17 -3 19 -12 6z"/>
<path d="M8954 2285 c8 -8 16 -15 19 -15 2 0 4 7 4 15 0 8 -9 15 -19 15 -17 0
-18 -2 -4 -15z"/>
</g>
</svg>
